G04 #@! TF.GenerationSoftware,KiCad,Pcbnew,(5.1.5)-3*
G04 #@! TF.CreationDate,2020-02-08T17:29:24+01:00*
G04 #@! TF.ProjectId,acmp_test_fixture,61636d70-5f74-4657-9374-5f6669787475,rev?*
G04 #@! TF.SameCoordinates,Original*
G04 #@! TF.FileFunction,Copper,L2,Bot*
G04 #@! TF.FilePolarity,Positive*
%FSLAX46Y46*%
G04 Gerber Fmt 4.6, Leading zero omitted, Abs format (unit mm)*
G04 Created by KiCad (PCBNEW (5.1.5)-3) date 2020-02-08 17:29:24*
%MOMM*%
%LPD*%
G04 APERTURE LIST*
%ADD10R,5.080000X1.500000*%
%ADD11R,1.200000X1.600000*%
%ADD12R,0.800000X1.200000*%
%ADD13C,0.254000*%
G04 APERTURE END LIST*
D10*
X4445000Y46550000D03*
X4445000Y55050000D03*
D11*
X12180000Y32800000D03*
X10680000Y32800000D03*
X10680000Y30700000D03*
X12180000Y30700000D03*
D10*
X29845000Y55050000D03*
X29845000Y46550000D03*
X29845000Y16950000D03*
X29845000Y8450000D03*
X4445000Y8450000D03*
X4445000Y16950000D03*
D12*
X23385000Y31025000D03*
X22335000Y31025000D03*
X22335000Y32475000D03*
X23385000Y32475000D03*
D13*
G36*
X32155143Y63006108D02*
G01*
X32544853Y62888447D01*
X32904282Y62697335D01*
X33219750Y62440045D01*
X33479233Y62126384D01*
X33672851Y61768295D01*
X33793230Y61379413D01*
X33838000Y60953453D01*
X33838001Y56967000D01*
X33042205Y56967000D01*
X33020000Y56969187D01*
X32997795Y56967000D01*
X32931393Y56960460D01*
X32846190Y56934614D01*
X32767667Y56892643D01*
X32698841Y56836159D01*
X32642357Y56767333D01*
X32600386Y56688810D01*
X32574540Y56603607D01*
X32565813Y56515000D01*
X32568000Y56492795D01*
X32568000Y56408061D01*
X32509482Y56425812D01*
X32385000Y56438072D01*
X30130750Y56435000D01*
X29972000Y56276250D01*
X29972000Y55177000D01*
X29992000Y55177000D01*
X29992000Y54923000D01*
X29972000Y54923000D01*
X29972000Y53823750D01*
X30130750Y53665000D01*
X32385000Y53661928D01*
X32509482Y53674188D01*
X32568000Y53691939D01*
X32568001Y47908061D01*
X32509482Y47925812D01*
X32385000Y47938072D01*
X30130750Y47935000D01*
X29972000Y47776250D01*
X29972000Y46677000D01*
X29992000Y46677000D01*
X29992000Y46423000D01*
X29972000Y46423000D01*
X29972000Y45323750D01*
X30130750Y45165000D01*
X32385000Y45161928D01*
X32509482Y45174188D01*
X32568001Y45191940D01*
X32568001Y45107215D01*
X32565813Y45085000D01*
X32574540Y44996393D01*
X32600386Y44911190D01*
X32642357Y44832667D01*
X32698841Y44763841D01*
X32767667Y44707357D01*
X32846190Y44665386D01*
X32931393Y44639540D01*
X32997795Y44633000D01*
X33020000Y44630813D01*
X33042205Y44633000D01*
X33838000Y44633000D01*
X33838001Y18867000D01*
X33042205Y18867000D01*
X33020000Y18869187D01*
X32997795Y18867000D01*
X32931393Y18860460D01*
X32846190Y18834614D01*
X32767667Y18792643D01*
X32698841Y18736159D01*
X32642357Y18667333D01*
X32600386Y18588810D01*
X32574540Y18503607D01*
X32565813Y18415000D01*
X32568000Y18392795D01*
X32568000Y18308061D01*
X32509482Y18325812D01*
X32385000Y18338072D01*
X30130750Y18335000D01*
X29972000Y18176250D01*
X29972000Y17077000D01*
X29992000Y17077000D01*
X29992000Y16823000D01*
X29972000Y16823000D01*
X29972000Y15723750D01*
X30130750Y15565000D01*
X32385000Y15561928D01*
X32509482Y15574188D01*
X32568000Y15591939D01*
X32568001Y9808061D01*
X32509482Y9825812D01*
X32385000Y9838072D01*
X30130750Y9835000D01*
X29972000Y9676250D01*
X29972000Y8577000D01*
X29992000Y8577000D01*
X29992000Y8323000D01*
X29972000Y8323000D01*
X29972000Y7223750D01*
X30130750Y7065000D01*
X32385000Y7061928D01*
X32509482Y7074188D01*
X32568001Y7091940D01*
X32568001Y7007215D01*
X32565813Y6985000D01*
X32574540Y6896393D01*
X32600386Y6811190D01*
X32642357Y6732667D01*
X32698841Y6663841D01*
X32767667Y6607357D01*
X32846190Y6565386D01*
X32931393Y6539540D01*
X32997795Y6533000D01*
X33020000Y6530813D01*
X33042205Y6533000D01*
X33838000Y6533000D01*
X33838001Y2562119D01*
X33796107Y2134857D01*
X33678450Y1745155D01*
X33487336Y1385721D01*
X33230045Y1070250D01*
X32916384Y810767D01*
X32558295Y617149D01*
X32169414Y496770D01*
X31743453Y452000D01*
X2562109Y452000D01*
X2134857Y493893D01*
X1745155Y611550D01*
X1385721Y802664D01*
X1070250Y1059955D01*
X810767Y1373616D01*
X617149Y1731705D01*
X496770Y2120586D01*
X452000Y2546547D01*
X452000Y3374642D01*
X1148000Y3374642D01*
X1148000Y2975358D01*
X1225896Y2583746D01*
X1378696Y2214855D01*
X1600526Y1882863D01*
X1882863Y1600526D01*
X2214855Y1378696D01*
X2583746Y1225896D01*
X2975358Y1148000D01*
X3374642Y1148000D01*
X3766254Y1225896D01*
X4135145Y1378696D01*
X4467137Y1600526D01*
X4749474Y1882863D01*
X4971304Y2214855D01*
X5124104Y2583746D01*
X5202000Y2975358D01*
X5202000Y3374642D01*
X29088000Y3374642D01*
X29088000Y2975358D01*
X29165896Y2583746D01*
X29318696Y2214855D01*
X29540526Y1882863D01*
X29822863Y1600526D01*
X30154855Y1378696D01*
X30523746Y1225896D01*
X30915358Y1148000D01*
X31314642Y1148000D01*
X31706254Y1225896D01*
X32075145Y1378696D01*
X32407137Y1600526D01*
X32689474Y1882863D01*
X32911304Y2214855D01*
X33064104Y2583746D01*
X33142000Y2975358D01*
X33142000Y3374642D01*
X33064104Y3766254D01*
X32911304Y4135145D01*
X32689474Y4467137D01*
X32407137Y4749474D01*
X32075145Y4971304D01*
X31706254Y5124104D01*
X31314642Y5202000D01*
X30915358Y5202000D01*
X30523746Y5124104D01*
X30154855Y4971304D01*
X29822863Y4749474D01*
X29540526Y4467137D01*
X29318696Y4135145D01*
X29165896Y3766254D01*
X29088000Y3374642D01*
X5202000Y3374642D01*
X5124104Y3766254D01*
X4971304Y4135145D01*
X4749474Y4467137D01*
X4467137Y4749474D01*
X4135145Y4971304D01*
X3766254Y5124104D01*
X3374642Y5202000D01*
X2975358Y5202000D01*
X2583746Y5124104D01*
X2214855Y4971304D01*
X1882863Y4749474D01*
X1600526Y4467137D01*
X1378696Y4135145D01*
X1225896Y3766254D01*
X1148000Y3374642D01*
X452000Y3374642D01*
X452000Y6533000D01*
X1247795Y6533000D01*
X1270000Y6530813D01*
X1292205Y6533000D01*
X1358607Y6539540D01*
X1443810Y6565386D01*
X1522333Y6607357D01*
X1591159Y6663841D01*
X1647643Y6732667D01*
X1689614Y6811190D01*
X1715460Y6896393D01*
X1724187Y6985000D01*
X1722000Y7007205D01*
X1722000Y7091939D01*
X1780518Y7074188D01*
X1905000Y7061928D01*
X4159250Y7065000D01*
X4318000Y7223750D01*
X4318000Y8323000D01*
X4572000Y8323000D01*
X4572000Y7223750D01*
X4730750Y7065000D01*
X6985000Y7061928D01*
X7109482Y7074188D01*
X7229180Y7110498D01*
X7339494Y7169463D01*
X7436185Y7248815D01*
X7515537Y7345506D01*
X7574502Y7455820D01*
X7610812Y7575518D01*
X7623072Y7700000D01*
X26666928Y7700000D01*
X26679188Y7575518D01*
X26715498Y7455820D01*
X26774463Y7345506D01*
X26853815Y7248815D01*
X26950506Y7169463D01*
X27060820Y7110498D01*
X27180518Y7074188D01*
X27305000Y7061928D01*
X29559250Y7065000D01*
X29718000Y7223750D01*
X29718000Y8323000D01*
X26828750Y8323000D01*
X26670000Y8164250D01*
X26666928Y7700000D01*
X7623072Y7700000D01*
X7620000Y8164250D01*
X7461250Y8323000D01*
X4572000Y8323000D01*
X4318000Y8323000D01*
X4298000Y8323000D01*
X4298000Y8577000D01*
X4318000Y8577000D01*
X4318000Y9676250D01*
X4572000Y9676250D01*
X4572000Y8577000D01*
X7461250Y8577000D01*
X7620000Y8735750D01*
X7623072Y9200000D01*
X26666928Y9200000D01*
X26670000Y8735750D01*
X26828750Y8577000D01*
X29718000Y8577000D01*
X29718000Y9676250D01*
X29559250Y9835000D01*
X27305000Y9838072D01*
X27180518Y9825812D01*
X27060820Y9789502D01*
X26950506Y9730537D01*
X26853815Y9651185D01*
X26774463Y9554494D01*
X26715498Y9444180D01*
X26679188Y9324482D01*
X26666928Y9200000D01*
X7623072Y9200000D01*
X7610812Y9324482D01*
X7574502Y9444180D01*
X7515537Y9554494D01*
X7436185Y9651185D01*
X7339494Y9730537D01*
X7229180Y9789502D01*
X7109482Y9825812D01*
X6985000Y9838072D01*
X4730750Y9835000D01*
X4572000Y9676250D01*
X4318000Y9676250D01*
X4159250Y9835000D01*
X1905000Y9838072D01*
X1780518Y9825812D01*
X1722000Y9808061D01*
X1722000Y15591939D01*
X1780518Y15574188D01*
X1905000Y15561928D01*
X4159250Y15565000D01*
X4318000Y15723750D01*
X4318000Y16823000D01*
X4572000Y16823000D01*
X4572000Y15723750D01*
X4730750Y15565000D01*
X6985000Y15561928D01*
X7109482Y15574188D01*
X7229180Y15610498D01*
X7339494Y15669463D01*
X7436185Y15748815D01*
X7515537Y15845506D01*
X7574502Y15955820D01*
X7610812Y16075518D01*
X7623072Y16200000D01*
X26666928Y16200000D01*
X26679188Y16075518D01*
X26715498Y15955820D01*
X26774463Y15845506D01*
X26853815Y15748815D01*
X26950506Y15669463D01*
X27060820Y15610498D01*
X27180518Y15574188D01*
X27305000Y15561928D01*
X29559250Y15565000D01*
X29718000Y15723750D01*
X29718000Y16823000D01*
X26828750Y16823000D01*
X26670000Y16664250D01*
X26666928Y16200000D01*
X7623072Y16200000D01*
X7620000Y16664250D01*
X7461250Y16823000D01*
X4572000Y16823000D01*
X4318000Y16823000D01*
X4298000Y16823000D01*
X4298000Y17077000D01*
X4318000Y17077000D01*
X4318000Y18176250D01*
X4572000Y18176250D01*
X4572000Y17077000D01*
X7461250Y17077000D01*
X7620000Y17235750D01*
X7623072Y17700000D01*
X26666928Y17700000D01*
X26670000Y17235750D01*
X26828750Y17077000D01*
X29718000Y17077000D01*
X29718000Y18176250D01*
X29559250Y18335000D01*
X27305000Y18338072D01*
X27180518Y18325812D01*
X27060820Y18289502D01*
X26950506Y18230537D01*
X26853815Y18151185D01*
X26774463Y18054494D01*
X26715498Y17944180D01*
X26679188Y17824482D01*
X26666928Y17700000D01*
X7623072Y17700000D01*
X7610812Y17824482D01*
X7574502Y17944180D01*
X7515537Y18054494D01*
X7436185Y18151185D01*
X7339494Y18230537D01*
X7229180Y18289502D01*
X7109482Y18325812D01*
X6985000Y18338072D01*
X4730750Y18335000D01*
X4572000Y18176250D01*
X4318000Y18176250D01*
X4159250Y18335000D01*
X1905000Y18338072D01*
X1780518Y18325812D01*
X1722000Y18308061D01*
X1722000Y18392795D01*
X1724187Y18415000D01*
X1715460Y18503607D01*
X1689614Y18588810D01*
X1647643Y18667333D01*
X1591159Y18736159D01*
X1522333Y18792643D01*
X1443810Y18834614D01*
X1358607Y18860460D01*
X1292205Y18867000D01*
X1270000Y18869187D01*
X1247795Y18867000D01*
X452000Y18867000D01*
X452000Y32000000D01*
X9441928Y32000000D01*
X9454188Y31875518D01*
X9490498Y31755820D01*
X9549463Y31645506D01*
X9628815Y31548815D01*
X9653728Y31528369D01*
X9650934Y31500000D01*
X9650934Y29900000D01*
X9659178Y29816293D01*
X9683595Y29735804D01*
X9723245Y29661624D01*
X9776605Y29596605D01*
X9841624Y29543245D01*
X9915804Y29503595D01*
X9996293Y29479178D01*
X10080000Y29470934D01*
X11110662Y29470934D01*
X11128815Y29448815D01*
X11225506Y29369463D01*
X11335820Y29310498D01*
X11455518Y29274188D01*
X11580000Y29261928D01*
X11894250Y29265000D01*
X12053000Y29423750D01*
X12053000Y30573000D01*
X12307000Y30573000D01*
X12307000Y29423750D01*
X12465750Y29265000D01*
X12780000Y29261928D01*
X12904482Y29274188D01*
X13024180Y29310498D01*
X13134494Y29369463D01*
X13231185Y29448815D01*
X13310537Y29545506D01*
X13369502Y29655820D01*
X13405812Y29775518D01*
X13418072Y29900000D01*
X13415000Y30414250D01*
X13256250Y30573000D01*
X12307000Y30573000D01*
X12053000Y30573000D01*
X12033000Y30573000D01*
X12033000Y30827000D01*
X12053000Y30827000D01*
X12053000Y30847000D01*
X12307000Y30847000D01*
X12307000Y30827000D01*
X13256250Y30827000D01*
X13415000Y30985750D01*
X13418072Y31500000D01*
X13405812Y31624482D01*
X13369502Y31744180D01*
X13310537Y31854494D01*
X13293709Y31875000D01*
X21296928Y31875000D01*
X21309188Y31750518D01*
X21345498Y31630820D01*
X21404463Y31520506D01*
X21483815Y31423815D01*
X21505934Y31405662D01*
X21505934Y30425000D01*
X21514178Y30341293D01*
X21538595Y30260804D01*
X21578245Y30186624D01*
X21631605Y30121605D01*
X21696624Y30068245D01*
X21770804Y30028595D01*
X21851293Y30004178D01*
X21935000Y29995934D01*
X22515662Y29995934D01*
X22533815Y29973815D01*
X22630506Y29894463D01*
X22740820Y29835498D01*
X22860518Y29799188D01*
X22985000Y29786928D01*
X23099250Y29790000D01*
X23258000Y29948750D01*
X23258000Y30898000D01*
X23512000Y30898000D01*
X23512000Y29948750D01*
X23670750Y29790000D01*
X23785000Y29786928D01*
X23909482Y29799188D01*
X24029180Y29835498D01*
X24139494Y29894463D01*
X24236185Y29973815D01*
X24315537Y30070506D01*
X24374502Y30180820D01*
X24410812Y30300518D01*
X24423072Y30425000D01*
X24420000Y30739250D01*
X24261250Y30898000D01*
X23512000Y30898000D01*
X23258000Y30898000D01*
X23238000Y30898000D01*
X23238000Y31152000D01*
X23258000Y31152000D01*
X23258000Y31172000D01*
X23512000Y31172000D01*
X23512000Y31152000D01*
X24261250Y31152000D01*
X24420000Y31310750D01*
X24423072Y31625000D01*
X24410812Y31749482D01*
X24374502Y31869180D01*
X24315537Y31979494D01*
X24236185Y32076185D01*
X24214066Y32094338D01*
X24214066Y33075000D01*
X24205822Y33158707D01*
X24181405Y33239196D01*
X24141755Y33313376D01*
X24088395Y33378395D01*
X24023376Y33431755D01*
X23949196Y33471405D01*
X23868707Y33495822D01*
X23785000Y33504066D01*
X23204338Y33504066D01*
X23186185Y33526185D01*
X23089494Y33605537D01*
X22979180Y33664502D01*
X22859482Y33700812D01*
X22735000Y33713072D01*
X22620750Y33710000D01*
X22462000Y33551250D01*
X22462000Y32602000D01*
X22482000Y32602000D01*
X22482000Y32348000D01*
X22462000Y32348000D01*
X22462000Y32328000D01*
X22208000Y32328000D01*
X22208000Y32348000D01*
X21458750Y32348000D01*
X21300000Y32189250D01*
X21296928Y31875000D01*
X13293709Y31875000D01*
X13231185Y31951185D01*
X13206272Y31971631D01*
X13209066Y32000000D01*
X13209066Y33075000D01*
X21296928Y33075000D01*
X21300000Y32760750D01*
X21458750Y32602000D01*
X22208000Y32602000D01*
X22208000Y33551250D01*
X22049250Y33710000D01*
X21935000Y33713072D01*
X21810518Y33700812D01*
X21690820Y33664502D01*
X21580506Y33605537D01*
X21483815Y33526185D01*
X21404463Y33429494D01*
X21345498Y33319180D01*
X21309188Y33199482D01*
X21296928Y33075000D01*
X13209066Y33075000D01*
X13209066Y33600000D01*
X13200822Y33683707D01*
X13176405Y33764196D01*
X13136755Y33838376D01*
X13083395Y33903395D01*
X13018376Y33956755D01*
X12944196Y33996405D01*
X12863707Y34020822D01*
X12780000Y34029066D01*
X11749338Y34029066D01*
X11731185Y34051185D01*
X11634494Y34130537D01*
X11524180Y34189502D01*
X11404482Y34225812D01*
X11280000Y34238072D01*
X10965750Y34235000D01*
X10807000Y34076250D01*
X10807000Y32927000D01*
X10827000Y32927000D01*
X10827000Y32673000D01*
X10807000Y32673000D01*
X10807000Y32653000D01*
X10553000Y32653000D01*
X10553000Y32673000D01*
X9603750Y32673000D01*
X9445000Y32514250D01*
X9441928Y32000000D01*
X452000Y32000000D01*
X452000Y33600000D01*
X9441928Y33600000D01*
X9445000Y33085750D01*
X9603750Y32927000D01*
X10553000Y32927000D01*
X10553000Y34076250D01*
X10394250Y34235000D01*
X10080000Y34238072D01*
X9955518Y34225812D01*
X9835820Y34189502D01*
X9725506Y34130537D01*
X9628815Y34051185D01*
X9549463Y33954494D01*
X9490498Y33844180D01*
X9454188Y33724482D01*
X9441928Y33600000D01*
X452000Y33600000D01*
X452000Y44633000D01*
X1247795Y44633000D01*
X1270000Y44630813D01*
X1292205Y44633000D01*
X1358607Y44639540D01*
X1443810Y44665386D01*
X1522333Y44707357D01*
X1591159Y44763841D01*
X1647643Y44832667D01*
X1689614Y44911190D01*
X1715460Y44996393D01*
X1724187Y45085000D01*
X1722000Y45107205D01*
X1722000Y45191939D01*
X1780518Y45174188D01*
X1905000Y45161928D01*
X4159250Y45165000D01*
X4318000Y45323750D01*
X4318000Y46423000D01*
X4572000Y46423000D01*
X4572000Y45323750D01*
X4730750Y45165000D01*
X6985000Y45161928D01*
X7109482Y45174188D01*
X7229180Y45210498D01*
X7339494Y45269463D01*
X7436185Y45348815D01*
X7515537Y45445506D01*
X7574502Y45555820D01*
X7610812Y45675518D01*
X7623072Y45800000D01*
X26666928Y45800000D01*
X26679188Y45675518D01*
X26715498Y45555820D01*
X26774463Y45445506D01*
X26853815Y45348815D01*
X26950506Y45269463D01*
X27060820Y45210498D01*
X27180518Y45174188D01*
X27305000Y45161928D01*
X29559250Y45165000D01*
X29718000Y45323750D01*
X29718000Y46423000D01*
X26828750Y46423000D01*
X26670000Y46264250D01*
X26666928Y45800000D01*
X7623072Y45800000D01*
X7620000Y46264250D01*
X7461250Y46423000D01*
X4572000Y46423000D01*
X4318000Y46423000D01*
X4298000Y46423000D01*
X4298000Y46677000D01*
X4318000Y46677000D01*
X4318000Y47776250D01*
X4572000Y47776250D01*
X4572000Y46677000D01*
X7461250Y46677000D01*
X7620000Y46835750D01*
X7623072Y47300000D01*
X26666928Y47300000D01*
X26670000Y46835750D01*
X26828750Y46677000D01*
X29718000Y46677000D01*
X29718000Y47776250D01*
X29559250Y47935000D01*
X27305000Y47938072D01*
X27180518Y47925812D01*
X27060820Y47889502D01*
X26950506Y47830537D01*
X26853815Y47751185D01*
X26774463Y47654494D01*
X26715498Y47544180D01*
X26679188Y47424482D01*
X26666928Y47300000D01*
X7623072Y47300000D01*
X7610812Y47424482D01*
X7574502Y47544180D01*
X7515537Y47654494D01*
X7436185Y47751185D01*
X7339494Y47830537D01*
X7229180Y47889502D01*
X7109482Y47925812D01*
X6985000Y47938072D01*
X4730750Y47935000D01*
X4572000Y47776250D01*
X4318000Y47776250D01*
X4159250Y47935000D01*
X1905000Y47938072D01*
X1780518Y47925812D01*
X1722000Y47908061D01*
X1722000Y53691939D01*
X1780518Y53674188D01*
X1905000Y53661928D01*
X4159250Y53665000D01*
X4318000Y53823750D01*
X4318000Y54923000D01*
X4572000Y54923000D01*
X4572000Y53823750D01*
X4730750Y53665000D01*
X6985000Y53661928D01*
X7109482Y53674188D01*
X7229180Y53710498D01*
X7339494Y53769463D01*
X7436185Y53848815D01*
X7515537Y53945506D01*
X7574502Y54055820D01*
X7610812Y54175518D01*
X7623072Y54300000D01*
X26666928Y54300000D01*
X26679188Y54175518D01*
X26715498Y54055820D01*
X26774463Y53945506D01*
X26853815Y53848815D01*
X26950506Y53769463D01*
X27060820Y53710498D01*
X27180518Y53674188D01*
X27305000Y53661928D01*
X29559250Y53665000D01*
X29718000Y53823750D01*
X29718000Y54923000D01*
X26828750Y54923000D01*
X26670000Y54764250D01*
X26666928Y54300000D01*
X7623072Y54300000D01*
X7620000Y54764250D01*
X7461250Y54923000D01*
X4572000Y54923000D01*
X4318000Y54923000D01*
X4298000Y54923000D01*
X4298000Y55177000D01*
X4318000Y55177000D01*
X4318000Y56276250D01*
X4572000Y56276250D01*
X4572000Y55177000D01*
X7461250Y55177000D01*
X7620000Y55335750D01*
X7623072Y55800000D01*
X26666928Y55800000D01*
X26670000Y55335750D01*
X26828750Y55177000D01*
X29718000Y55177000D01*
X29718000Y56276250D01*
X29559250Y56435000D01*
X27305000Y56438072D01*
X27180518Y56425812D01*
X27060820Y56389502D01*
X26950506Y56330537D01*
X26853815Y56251185D01*
X26774463Y56154494D01*
X26715498Y56044180D01*
X26679188Y55924482D01*
X26666928Y55800000D01*
X7623072Y55800000D01*
X7610812Y55924482D01*
X7574502Y56044180D01*
X7515537Y56154494D01*
X7436185Y56251185D01*
X7339494Y56330537D01*
X7229180Y56389502D01*
X7109482Y56425812D01*
X6985000Y56438072D01*
X4730750Y56435000D01*
X4572000Y56276250D01*
X4318000Y56276250D01*
X4159250Y56435000D01*
X1905000Y56438072D01*
X1780518Y56425812D01*
X1722000Y56408061D01*
X1722000Y56492795D01*
X1724187Y56515000D01*
X1715460Y56603607D01*
X1689614Y56688810D01*
X1647643Y56767333D01*
X1591159Y56836159D01*
X1522333Y56892643D01*
X1443810Y56934614D01*
X1358607Y56960460D01*
X1292205Y56967000D01*
X1270000Y56969187D01*
X1247795Y56967000D01*
X452000Y56967000D01*
X452000Y60524642D01*
X1148000Y60524642D01*
X1148000Y60125358D01*
X1225896Y59733746D01*
X1378696Y59364855D01*
X1600526Y59032863D01*
X1882863Y58750526D01*
X2214855Y58528696D01*
X2583746Y58375896D01*
X2975358Y58298000D01*
X3374642Y58298000D01*
X3766254Y58375896D01*
X4135145Y58528696D01*
X4467137Y58750526D01*
X4749474Y59032863D01*
X4971304Y59364855D01*
X5124104Y59733746D01*
X5202000Y60125358D01*
X5202000Y60524642D01*
X29088000Y60524642D01*
X29088000Y60125358D01*
X29165896Y59733746D01*
X29318696Y59364855D01*
X29540526Y59032863D01*
X29822863Y58750526D01*
X30154855Y58528696D01*
X30523746Y58375896D01*
X30915358Y58298000D01*
X31314642Y58298000D01*
X31706254Y58375896D01*
X32075145Y58528696D01*
X32407137Y58750526D01*
X32689474Y59032863D01*
X32911304Y59364855D01*
X33064104Y59733746D01*
X33142000Y60125358D01*
X33142000Y60524642D01*
X33064104Y60916254D01*
X32911304Y61285145D01*
X32689474Y61617137D01*
X32407137Y61899474D01*
X32075145Y62121304D01*
X31706254Y62274104D01*
X31314642Y62352000D01*
X30915358Y62352000D01*
X30523746Y62274104D01*
X30154855Y62121304D01*
X29822863Y61899474D01*
X29540526Y61617137D01*
X29318696Y61285145D01*
X29165896Y60916254D01*
X29088000Y60524642D01*
X5202000Y60524642D01*
X5124104Y60916254D01*
X4971304Y61285145D01*
X4749474Y61617137D01*
X4467137Y61899474D01*
X4135145Y62121304D01*
X3766254Y62274104D01*
X3374642Y62352000D01*
X2975358Y62352000D01*
X2583746Y62274104D01*
X2214855Y62121304D01*
X1882863Y61899474D01*
X1600526Y61617137D01*
X1378696Y61285145D01*
X1225896Y60916254D01*
X1148000Y60524642D01*
X452000Y60524642D01*
X452000Y60937891D01*
X493892Y61365143D01*
X611553Y61754853D01*
X802665Y62114282D01*
X1059955Y62429750D01*
X1373616Y62689233D01*
X1731705Y62882851D01*
X2120587Y63003230D01*
X2546547Y63048000D01*
X31727891Y63048000D01*
X32155143Y63006108D01*
G37*
X32155143Y63006108D02*
X32544853Y62888447D01*
X32904282Y62697335D01*
X33219750Y62440045D01*
X33479233Y62126384D01*
X33672851Y61768295D01*
X33793230Y61379413D01*
X33838000Y60953453D01*
X33838001Y56967000D01*
X33042205Y56967000D01*
X33020000Y56969187D01*
X32997795Y56967000D01*
X32931393Y56960460D01*
X32846190Y56934614D01*
X32767667Y56892643D01*
X32698841Y56836159D01*
X32642357Y56767333D01*
X32600386Y56688810D01*
X32574540Y56603607D01*
X32565813Y56515000D01*
X32568000Y56492795D01*
X32568000Y56408061D01*
X32509482Y56425812D01*
X32385000Y56438072D01*
X30130750Y56435000D01*
X29972000Y56276250D01*
X29972000Y55177000D01*
X29992000Y55177000D01*
X29992000Y54923000D01*
X29972000Y54923000D01*
X29972000Y53823750D01*
X30130750Y53665000D01*
X32385000Y53661928D01*
X32509482Y53674188D01*
X32568000Y53691939D01*
X32568001Y47908061D01*
X32509482Y47925812D01*
X32385000Y47938072D01*
X30130750Y47935000D01*
X29972000Y47776250D01*
X29972000Y46677000D01*
X29992000Y46677000D01*
X29992000Y46423000D01*
X29972000Y46423000D01*
X29972000Y45323750D01*
X30130750Y45165000D01*
X32385000Y45161928D01*
X32509482Y45174188D01*
X32568001Y45191940D01*
X32568001Y45107215D01*
X32565813Y45085000D01*
X32574540Y44996393D01*
X32600386Y44911190D01*
X32642357Y44832667D01*
X32698841Y44763841D01*
X32767667Y44707357D01*
X32846190Y44665386D01*
X32931393Y44639540D01*
X32997795Y44633000D01*
X33020000Y44630813D01*
X33042205Y44633000D01*
X33838000Y44633000D01*
X33838001Y18867000D01*
X33042205Y18867000D01*
X33020000Y18869187D01*
X32997795Y18867000D01*
X32931393Y18860460D01*
X32846190Y18834614D01*
X32767667Y18792643D01*
X32698841Y18736159D01*
X32642357Y18667333D01*
X32600386Y18588810D01*
X32574540Y18503607D01*
X32565813Y18415000D01*
X32568000Y18392795D01*
X32568000Y18308061D01*
X32509482Y18325812D01*
X32385000Y18338072D01*
X30130750Y18335000D01*
X29972000Y18176250D01*
X29972000Y17077000D01*
X29992000Y17077000D01*
X29992000Y16823000D01*
X29972000Y16823000D01*
X29972000Y15723750D01*
X30130750Y15565000D01*
X32385000Y15561928D01*
X32509482Y15574188D01*
X32568000Y15591939D01*
X32568001Y9808061D01*
X32509482Y9825812D01*
X32385000Y9838072D01*
X30130750Y9835000D01*
X29972000Y9676250D01*
X29972000Y8577000D01*
X29992000Y8577000D01*
X29992000Y8323000D01*
X29972000Y8323000D01*
X29972000Y7223750D01*
X30130750Y7065000D01*
X32385000Y7061928D01*
X32509482Y7074188D01*
X32568001Y7091940D01*
X32568001Y7007215D01*
X32565813Y6985000D01*
X32574540Y6896393D01*
X32600386Y6811190D01*
X32642357Y6732667D01*
X32698841Y6663841D01*
X32767667Y6607357D01*
X32846190Y6565386D01*
X32931393Y6539540D01*
X32997795Y6533000D01*
X33020000Y6530813D01*
X33042205Y6533000D01*
X33838000Y6533000D01*
X33838001Y2562119D01*
X33796107Y2134857D01*
X33678450Y1745155D01*
X33487336Y1385721D01*
X33230045Y1070250D01*
X32916384Y810767D01*
X32558295Y617149D01*
X32169414Y496770D01*
X31743453Y452000D01*
X2562109Y452000D01*
X2134857Y493893D01*
X1745155Y611550D01*
X1385721Y802664D01*
X1070250Y1059955D01*
X810767Y1373616D01*
X617149Y1731705D01*
X496770Y2120586D01*
X452000Y2546547D01*
X452000Y3374642D01*
X1148000Y3374642D01*
X1148000Y2975358D01*
X1225896Y2583746D01*
X1378696Y2214855D01*
X1600526Y1882863D01*
X1882863Y1600526D01*
X2214855Y1378696D01*
X2583746Y1225896D01*
X2975358Y1148000D01*
X3374642Y1148000D01*
X3766254Y1225896D01*
X4135145Y1378696D01*
X4467137Y1600526D01*
X4749474Y1882863D01*
X4971304Y2214855D01*
X5124104Y2583746D01*
X5202000Y2975358D01*
X5202000Y3374642D01*
X29088000Y3374642D01*
X29088000Y2975358D01*
X29165896Y2583746D01*
X29318696Y2214855D01*
X29540526Y1882863D01*
X29822863Y1600526D01*
X30154855Y1378696D01*
X30523746Y1225896D01*
X30915358Y1148000D01*
X31314642Y1148000D01*
X31706254Y1225896D01*
X32075145Y1378696D01*
X32407137Y1600526D01*
X32689474Y1882863D01*
X32911304Y2214855D01*
X33064104Y2583746D01*
X33142000Y2975358D01*
X33142000Y3374642D01*
X33064104Y3766254D01*
X32911304Y4135145D01*
X32689474Y4467137D01*
X32407137Y4749474D01*
X32075145Y4971304D01*
X31706254Y5124104D01*
X31314642Y5202000D01*
X30915358Y5202000D01*
X30523746Y5124104D01*
X30154855Y4971304D01*
X29822863Y4749474D01*
X29540526Y4467137D01*
X29318696Y4135145D01*
X29165896Y3766254D01*
X29088000Y3374642D01*
X5202000Y3374642D01*
X5124104Y3766254D01*
X4971304Y4135145D01*
X4749474Y4467137D01*
X4467137Y4749474D01*
X4135145Y4971304D01*
X3766254Y5124104D01*
X3374642Y5202000D01*
X2975358Y5202000D01*
X2583746Y5124104D01*
X2214855Y4971304D01*
X1882863Y4749474D01*
X1600526Y4467137D01*
X1378696Y4135145D01*
X1225896Y3766254D01*
X1148000Y3374642D01*
X452000Y3374642D01*
X452000Y6533000D01*
X1247795Y6533000D01*
X1270000Y6530813D01*
X1292205Y6533000D01*
X1358607Y6539540D01*
X1443810Y6565386D01*
X1522333Y6607357D01*
X1591159Y6663841D01*
X1647643Y6732667D01*
X1689614Y6811190D01*
X1715460Y6896393D01*
X1724187Y6985000D01*
X1722000Y7007205D01*
X1722000Y7091939D01*
X1780518Y7074188D01*
X1905000Y7061928D01*
X4159250Y7065000D01*
X4318000Y7223750D01*
X4318000Y8323000D01*
X4572000Y8323000D01*
X4572000Y7223750D01*
X4730750Y7065000D01*
X6985000Y7061928D01*
X7109482Y7074188D01*
X7229180Y7110498D01*
X7339494Y7169463D01*
X7436185Y7248815D01*
X7515537Y7345506D01*
X7574502Y7455820D01*
X7610812Y7575518D01*
X7623072Y7700000D01*
X26666928Y7700000D01*
X26679188Y7575518D01*
X26715498Y7455820D01*
X26774463Y7345506D01*
X26853815Y7248815D01*
X26950506Y7169463D01*
X27060820Y7110498D01*
X27180518Y7074188D01*
X27305000Y7061928D01*
X29559250Y7065000D01*
X29718000Y7223750D01*
X29718000Y8323000D01*
X26828750Y8323000D01*
X26670000Y8164250D01*
X26666928Y7700000D01*
X7623072Y7700000D01*
X7620000Y8164250D01*
X7461250Y8323000D01*
X4572000Y8323000D01*
X4318000Y8323000D01*
X4298000Y8323000D01*
X4298000Y8577000D01*
X4318000Y8577000D01*
X4318000Y9676250D01*
X4572000Y9676250D01*
X4572000Y8577000D01*
X7461250Y8577000D01*
X7620000Y8735750D01*
X7623072Y9200000D01*
X26666928Y9200000D01*
X26670000Y8735750D01*
X26828750Y8577000D01*
X29718000Y8577000D01*
X29718000Y9676250D01*
X29559250Y9835000D01*
X27305000Y9838072D01*
X27180518Y9825812D01*
X27060820Y9789502D01*
X26950506Y9730537D01*
X26853815Y9651185D01*
X26774463Y9554494D01*
X26715498Y9444180D01*
X26679188Y9324482D01*
X26666928Y9200000D01*
X7623072Y9200000D01*
X7610812Y9324482D01*
X7574502Y9444180D01*
X7515537Y9554494D01*
X7436185Y9651185D01*
X7339494Y9730537D01*
X7229180Y9789502D01*
X7109482Y9825812D01*
X6985000Y9838072D01*
X4730750Y9835000D01*
X4572000Y9676250D01*
X4318000Y9676250D01*
X4159250Y9835000D01*
X1905000Y9838072D01*
X1780518Y9825812D01*
X1722000Y9808061D01*
X1722000Y15591939D01*
X1780518Y15574188D01*
X1905000Y15561928D01*
X4159250Y15565000D01*
X4318000Y15723750D01*
X4318000Y16823000D01*
X4572000Y16823000D01*
X4572000Y15723750D01*
X4730750Y15565000D01*
X6985000Y15561928D01*
X7109482Y15574188D01*
X7229180Y15610498D01*
X7339494Y15669463D01*
X7436185Y15748815D01*
X7515537Y15845506D01*
X7574502Y15955820D01*
X7610812Y16075518D01*
X7623072Y16200000D01*
X26666928Y16200000D01*
X26679188Y16075518D01*
X26715498Y15955820D01*
X26774463Y15845506D01*
X26853815Y15748815D01*
X26950506Y15669463D01*
X27060820Y15610498D01*
X27180518Y15574188D01*
X27305000Y15561928D01*
X29559250Y15565000D01*
X29718000Y15723750D01*
X29718000Y16823000D01*
X26828750Y16823000D01*
X26670000Y16664250D01*
X26666928Y16200000D01*
X7623072Y16200000D01*
X7620000Y16664250D01*
X7461250Y16823000D01*
X4572000Y16823000D01*
X4318000Y16823000D01*
X4298000Y16823000D01*
X4298000Y17077000D01*
X4318000Y17077000D01*
X4318000Y18176250D01*
X4572000Y18176250D01*
X4572000Y17077000D01*
X7461250Y17077000D01*
X7620000Y17235750D01*
X7623072Y17700000D01*
X26666928Y17700000D01*
X26670000Y17235750D01*
X26828750Y17077000D01*
X29718000Y17077000D01*
X29718000Y18176250D01*
X29559250Y18335000D01*
X27305000Y18338072D01*
X27180518Y18325812D01*
X27060820Y18289502D01*
X26950506Y18230537D01*
X26853815Y18151185D01*
X26774463Y18054494D01*
X26715498Y17944180D01*
X26679188Y17824482D01*
X26666928Y17700000D01*
X7623072Y17700000D01*
X7610812Y17824482D01*
X7574502Y17944180D01*
X7515537Y18054494D01*
X7436185Y18151185D01*
X7339494Y18230537D01*
X7229180Y18289502D01*
X7109482Y18325812D01*
X6985000Y18338072D01*
X4730750Y18335000D01*
X4572000Y18176250D01*
X4318000Y18176250D01*
X4159250Y18335000D01*
X1905000Y18338072D01*
X1780518Y18325812D01*
X1722000Y18308061D01*
X1722000Y18392795D01*
X1724187Y18415000D01*
X1715460Y18503607D01*
X1689614Y18588810D01*
X1647643Y18667333D01*
X1591159Y18736159D01*
X1522333Y18792643D01*
X1443810Y18834614D01*
X1358607Y18860460D01*
X1292205Y18867000D01*
X1270000Y18869187D01*
X1247795Y18867000D01*
X452000Y18867000D01*
X452000Y32000000D01*
X9441928Y32000000D01*
X9454188Y31875518D01*
X9490498Y31755820D01*
X9549463Y31645506D01*
X9628815Y31548815D01*
X9653728Y31528369D01*
X9650934Y31500000D01*
X9650934Y29900000D01*
X9659178Y29816293D01*
X9683595Y29735804D01*
X9723245Y29661624D01*
X9776605Y29596605D01*
X9841624Y29543245D01*
X9915804Y29503595D01*
X9996293Y29479178D01*
X10080000Y29470934D01*
X11110662Y29470934D01*
X11128815Y29448815D01*
X11225506Y29369463D01*
X11335820Y29310498D01*
X11455518Y29274188D01*
X11580000Y29261928D01*
X11894250Y29265000D01*
X12053000Y29423750D01*
X12053000Y30573000D01*
X12307000Y30573000D01*
X12307000Y29423750D01*
X12465750Y29265000D01*
X12780000Y29261928D01*
X12904482Y29274188D01*
X13024180Y29310498D01*
X13134494Y29369463D01*
X13231185Y29448815D01*
X13310537Y29545506D01*
X13369502Y29655820D01*
X13405812Y29775518D01*
X13418072Y29900000D01*
X13415000Y30414250D01*
X13256250Y30573000D01*
X12307000Y30573000D01*
X12053000Y30573000D01*
X12033000Y30573000D01*
X12033000Y30827000D01*
X12053000Y30827000D01*
X12053000Y30847000D01*
X12307000Y30847000D01*
X12307000Y30827000D01*
X13256250Y30827000D01*
X13415000Y30985750D01*
X13418072Y31500000D01*
X13405812Y31624482D01*
X13369502Y31744180D01*
X13310537Y31854494D01*
X13293709Y31875000D01*
X21296928Y31875000D01*
X21309188Y31750518D01*
X21345498Y31630820D01*
X21404463Y31520506D01*
X21483815Y31423815D01*
X21505934Y31405662D01*
X21505934Y30425000D01*
X21514178Y30341293D01*
X21538595Y30260804D01*
X21578245Y30186624D01*
X21631605Y30121605D01*
X21696624Y30068245D01*
X21770804Y30028595D01*
X21851293Y30004178D01*
X21935000Y29995934D01*
X22515662Y29995934D01*
X22533815Y29973815D01*
X22630506Y29894463D01*
X22740820Y29835498D01*
X22860518Y29799188D01*
X22985000Y29786928D01*
X23099250Y29790000D01*
X23258000Y29948750D01*
X23258000Y30898000D01*
X23512000Y30898000D01*
X23512000Y29948750D01*
X23670750Y29790000D01*
X23785000Y29786928D01*
X23909482Y29799188D01*
X24029180Y29835498D01*
X24139494Y29894463D01*
X24236185Y29973815D01*
X24315537Y30070506D01*
X24374502Y30180820D01*
X24410812Y30300518D01*
X24423072Y30425000D01*
X24420000Y30739250D01*
X24261250Y30898000D01*
X23512000Y30898000D01*
X23258000Y30898000D01*
X23238000Y30898000D01*
X23238000Y31152000D01*
X23258000Y31152000D01*
X23258000Y31172000D01*
X23512000Y31172000D01*
X23512000Y31152000D01*
X24261250Y31152000D01*
X24420000Y31310750D01*
X24423072Y31625000D01*
X24410812Y31749482D01*
X24374502Y31869180D01*
X24315537Y31979494D01*
X24236185Y32076185D01*
X24214066Y32094338D01*
X24214066Y33075000D01*
X24205822Y33158707D01*
X24181405Y33239196D01*
X24141755Y33313376D01*
X24088395Y33378395D01*
X24023376Y33431755D01*
X23949196Y33471405D01*
X23868707Y33495822D01*
X23785000Y33504066D01*
X23204338Y33504066D01*
X23186185Y33526185D01*
X23089494Y33605537D01*
X22979180Y33664502D01*
X22859482Y33700812D01*
X22735000Y33713072D01*
X22620750Y33710000D01*
X22462000Y33551250D01*
X22462000Y32602000D01*
X22482000Y32602000D01*
X22482000Y32348000D01*
X22462000Y32348000D01*
X22462000Y32328000D01*
X22208000Y32328000D01*
X22208000Y32348000D01*
X21458750Y32348000D01*
X21300000Y32189250D01*
X21296928Y31875000D01*
X13293709Y31875000D01*
X13231185Y31951185D01*
X13206272Y31971631D01*
X13209066Y32000000D01*
X13209066Y33075000D01*
X21296928Y33075000D01*
X21300000Y32760750D01*
X21458750Y32602000D01*
X22208000Y32602000D01*
X22208000Y33551250D01*
X22049250Y33710000D01*
X21935000Y33713072D01*
X21810518Y33700812D01*
X21690820Y33664502D01*
X21580506Y33605537D01*
X21483815Y33526185D01*
X21404463Y33429494D01*
X21345498Y33319180D01*
X21309188Y33199482D01*
X21296928Y33075000D01*
X13209066Y33075000D01*
X13209066Y33600000D01*
X13200822Y33683707D01*
X13176405Y33764196D01*
X13136755Y33838376D01*
X13083395Y33903395D01*
X13018376Y33956755D01*
X12944196Y33996405D01*
X12863707Y34020822D01*
X12780000Y34029066D01*
X11749338Y34029066D01*
X11731185Y34051185D01*
X11634494Y34130537D01*
X11524180Y34189502D01*
X11404482Y34225812D01*
X11280000Y34238072D01*
X10965750Y34235000D01*
X10807000Y34076250D01*
X10807000Y32927000D01*
X10827000Y32927000D01*
X10827000Y32673000D01*
X10807000Y32673000D01*
X10807000Y32653000D01*
X10553000Y32653000D01*
X10553000Y32673000D01*
X9603750Y32673000D01*
X9445000Y32514250D01*
X9441928Y32000000D01*
X452000Y32000000D01*
X452000Y33600000D01*
X9441928Y33600000D01*
X9445000Y33085750D01*
X9603750Y32927000D01*
X10553000Y32927000D01*
X10553000Y34076250D01*
X10394250Y34235000D01*
X10080000Y34238072D01*
X9955518Y34225812D01*
X9835820Y34189502D01*
X9725506Y34130537D01*
X9628815Y34051185D01*
X9549463Y33954494D01*
X9490498Y33844180D01*
X9454188Y33724482D01*
X9441928Y33600000D01*
X452000Y33600000D01*
X452000Y44633000D01*
X1247795Y44633000D01*
X1270000Y44630813D01*
X1292205Y44633000D01*
X1358607Y44639540D01*
X1443810Y44665386D01*
X1522333Y44707357D01*
X1591159Y44763841D01*
X1647643Y44832667D01*
X1689614Y44911190D01*
X1715460Y44996393D01*
X1724187Y45085000D01*
X1722000Y45107205D01*
X1722000Y45191939D01*
X1780518Y45174188D01*
X1905000Y45161928D01*
X4159250Y45165000D01*
X4318000Y45323750D01*
X4318000Y46423000D01*
X4572000Y46423000D01*
X4572000Y45323750D01*
X4730750Y45165000D01*
X6985000Y45161928D01*
X7109482Y45174188D01*
X7229180Y45210498D01*
X7339494Y45269463D01*
X7436185Y45348815D01*
X7515537Y45445506D01*
X7574502Y45555820D01*
X7610812Y45675518D01*
X7623072Y45800000D01*
X26666928Y45800000D01*
X26679188Y45675518D01*
X26715498Y45555820D01*
X26774463Y45445506D01*
X26853815Y45348815D01*
X26950506Y45269463D01*
X27060820Y45210498D01*
X27180518Y45174188D01*
X27305000Y45161928D01*
X29559250Y45165000D01*
X29718000Y45323750D01*
X29718000Y46423000D01*
X26828750Y46423000D01*
X26670000Y46264250D01*
X26666928Y45800000D01*
X7623072Y45800000D01*
X7620000Y46264250D01*
X7461250Y46423000D01*
X4572000Y46423000D01*
X4318000Y46423000D01*
X4298000Y46423000D01*
X4298000Y46677000D01*
X4318000Y46677000D01*
X4318000Y47776250D01*
X4572000Y47776250D01*
X4572000Y46677000D01*
X7461250Y46677000D01*
X7620000Y46835750D01*
X7623072Y47300000D01*
X26666928Y47300000D01*
X26670000Y46835750D01*
X26828750Y46677000D01*
X29718000Y46677000D01*
X29718000Y47776250D01*
X29559250Y47935000D01*
X27305000Y47938072D01*
X27180518Y47925812D01*
X27060820Y47889502D01*
X26950506Y47830537D01*
X26853815Y47751185D01*
X26774463Y47654494D01*
X26715498Y47544180D01*
X26679188Y47424482D01*
X26666928Y47300000D01*
X7623072Y47300000D01*
X7610812Y47424482D01*
X7574502Y47544180D01*
X7515537Y47654494D01*
X7436185Y47751185D01*
X7339494Y47830537D01*
X7229180Y47889502D01*
X7109482Y47925812D01*
X6985000Y47938072D01*
X4730750Y47935000D01*
X4572000Y47776250D01*
X4318000Y47776250D01*
X4159250Y47935000D01*
X1905000Y47938072D01*
X1780518Y47925812D01*
X1722000Y47908061D01*
X1722000Y53691939D01*
X1780518Y53674188D01*
X1905000Y53661928D01*
X4159250Y53665000D01*
X4318000Y53823750D01*
X4318000Y54923000D01*
X4572000Y54923000D01*
X4572000Y53823750D01*
X4730750Y53665000D01*
X6985000Y53661928D01*
X7109482Y53674188D01*
X7229180Y53710498D01*
X7339494Y53769463D01*
X7436185Y53848815D01*
X7515537Y53945506D01*
X7574502Y54055820D01*
X7610812Y54175518D01*
X7623072Y54300000D01*
X26666928Y54300000D01*
X26679188Y54175518D01*
X26715498Y54055820D01*
X26774463Y53945506D01*
X26853815Y53848815D01*
X26950506Y53769463D01*
X27060820Y53710498D01*
X27180518Y53674188D01*
X27305000Y53661928D01*
X29559250Y53665000D01*
X29718000Y53823750D01*
X29718000Y54923000D01*
X26828750Y54923000D01*
X26670000Y54764250D01*
X26666928Y54300000D01*
X7623072Y54300000D01*
X7620000Y54764250D01*
X7461250Y54923000D01*
X4572000Y54923000D01*
X4318000Y54923000D01*
X4298000Y54923000D01*
X4298000Y55177000D01*
X4318000Y55177000D01*
X4318000Y56276250D01*
X4572000Y56276250D01*
X4572000Y55177000D01*
X7461250Y55177000D01*
X7620000Y55335750D01*
X7623072Y55800000D01*
X26666928Y55800000D01*
X26670000Y55335750D01*
X26828750Y55177000D01*
X29718000Y55177000D01*
X29718000Y56276250D01*
X29559250Y56435000D01*
X27305000Y56438072D01*
X27180518Y56425812D01*
X27060820Y56389502D01*
X26950506Y56330537D01*
X26853815Y56251185D01*
X26774463Y56154494D01*
X26715498Y56044180D01*
X26679188Y55924482D01*
X26666928Y55800000D01*
X7623072Y55800000D01*
X7610812Y55924482D01*
X7574502Y56044180D01*
X7515537Y56154494D01*
X7436185Y56251185D01*
X7339494Y56330537D01*
X7229180Y56389502D01*
X7109482Y56425812D01*
X6985000Y56438072D01*
X4730750Y56435000D01*
X4572000Y56276250D01*
X4318000Y56276250D01*
X4159250Y56435000D01*
X1905000Y56438072D01*
X1780518Y56425812D01*
X1722000Y56408061D01*
X1722000Y56492795D01*
X1724187Y56515000D01*
X1715460Y56603607D01*
X1689614Y56688810D01*
X1647643Y56767333D01*
X1591159Y56836159D01*
X1522333Y56892643D01*
X1443810Y56934614D01*
X1358607Y56960460D01*
X1292205Y56967000D01*
X1270000Y56969187D01*
X1247795Y56967000D01*
X452000Y56967000D01*
X452000Y60524642D01*
X1148000Y60524642D01*
X1148000Y60125358D01*
X1225896Y59733746D01*
X1378696Y59364855D01*
X1600526Y59032863D01*
X1882863Y58750526D01*
X2214855Y58528696D01*
X2583746Y58375896D01*
X2975358Y58298000D01*
X3374642Y58298000D01*
X3766254Y58375896D01*
X4135145Y58528696D01*
X4467137Y58750526D01*
X4749474Y59032863D01*
X4971304Y59364855D01*
X5124104Y59733746D01*
X5202000Y60125358D01*
X5202000Y60524642D01*
X29088000Y60524642D01*
X29088000Y60125358D01*
X29165896Y59733746D01*
X29318696Y59364855D01*
X29540526Y59032863D01*
X29822863Y58750526D01*
X30154855Y58528696D01*
X30523746Y58375896D01*
X30915358Y58298000D01*
X31314642Y58298000D01*
X31706254Y58375896D01*
X32075145Y58528696D01*
X32407137Y58750526D01*
X32689474Y59032863D01*
X32911304Y59364855D01*
X33064104Y59733746D01*
X33142000Y60125358D01*
X33142000Y60524642D01*
X33064104Y60916254D01*
X32911304Y61285145D01*
X32689474Y61617137D01*
X32407137Y61899474D01*
X32075145Y62121304D01*
X31706254Y62274104D01*
X31314642Y62352000D01*
X30915358Y62352000D01*
X30523746Y62274104D01*
X30154855Y62121304D01*
X29822863Y61899474D01*
X29540526Y61617137D01*
X29318696Y61285145D01*
X29165896Y60916254D01*
X29088000Y60524642D01*
X5202000Y60524642D01*
X5124104Y60916254D01*
X4971304Y61285145D01*
X4749474Y61617137D01*
X4467137Y61899474D01*
X4135145Y62121304D01*
X3766254Y62274104D01*
X3374642Y62352000D01*
X2975358Y62352000D01*
X2583746Y62274104D01*
X2214855Y62121304D01*
X1882863Y61899474D01*
X1600526Y61617137D01*
X1378696Y61285145D01*
X1225896Y60916254D01*
X1148000Y60524642D01*
X452000Y60524642D01*
X452000Y60937891D01*
X493892Y61365143D01*
X611553Y61754853D01*
X802665Y62114282D01*
X1059955Y62429750D01*
X1373616Y62689233D01*
X1731705Y62882851D01*
X2120587Y63003230D01*
X2546547Y63048000D01*
X31727891Y63048000D01*
X32155143Y63006108D01*
M02*
