G04 #@! TF.GenerationSoftware,KiCad,Pcbnew,(5.1.5)-3*
G04 #@! TF.CreationDate,2020-02-08T17:29:24+01:00*
G04 #@! TF.ProjectId,acmp_test_fixture,61636d70-5f74-4657-9374-5f6669787475,rev?*
G04 #@! TF.SameCoordinates,Original*
G04 #@! TF.FileFunction,Profile,NP*
%FSLAX46Y46*%
G04 Gerber Fmt 4.6, Leading zero omitted, Abs format (unit mm)*
G04 Created by KiCad (PCBNEW (5.1.5)-3) date 2020-02-08 17:29:24*
%MOMM*%
%LPD*%
G04 APERTURE LIST*
%ADD10C,0.050000*%
G04 APERTURE END LIST*
D10*
X2540000Y0D02*
X31750000Y0D01*
X2540000Y63500000D02*
X31750000Y63500000D01*
X0Y6985000D02*
X0Y2540000D01*
X1270000Y6985000D02*
X0Y6985000D01*
X1270000Y18415000D02*
X1270000Y6985000D01*
X0Y18415000D02*
X1270000Y18415000D01*
X0Y45085000D02*
X0Y18415000D01*
X1270000Y45085000D02*
X0Y45085000D01*
X1270000Y56515000D02*
X1270000Y45085000D01*
X0Y56515000D02*
X1270000Y56515000D01*
X0Y60960000D02*
X0Y56515000D01*
X34290000Y6985000D02*
X34290000Y2540000D01*
X33020000Y6985000D02*
X34290000Y6985000D01*
X33020000Y18415000D02*
X33020000Y6985000D01*
X34290000Y18415000D02*
X33020000Y18415000D01*
X34290000Y45085000D02*
X34290000Y18415000D01*
X33020000Y45085000D02*
X34290000Y45085000D01*
X33020000Y56515000D02*
X33020000Y45085000D01*
X34290000Y56515000D02*
X33020000Y56515000D01*
X34290000Y60960000D02*
X34290000Y56515000D01*
X2540000Y0D02*
G75*
G02X0Y2540000I0J2540000D01*
G01*
X34290000Y2540000D02*
G75*
G02X31750000Y0I-2540000J0D01*
G01*
X31750000Y63500000D02*
G75*
G02X34290000Y60960000I0J-2540000D01*
G01*
X0Y60960000D02*
G75*
G02X2540000Y63500000I2540000J0D01*
G01*
M02*
