G04 #@! TF.GenerationSoftware,KiCad,Pcbnew,(5.1.5)-3*
G04 #@! TF.CreationDate,2020-02-21T13:38:46+01:00*
G04 #@! TF.ProjectId,crystal_calibration,63727973-7461-46c5-9f63-616c69627261,rev?*
G04 #@! TF.SameCoordinates,Original*
G04 #@! TF.FileFunction,Copper,L1,Top*
G04 #@! TF.FilePolarity,Positive*
%FSLAX46Y46*%
G04 Gerber Fmt 4.6, Leading zero omitted, Abs format (unit mm)*
G04 Created by KiCad (PCBNEW (5.1.5)-3) date 2020-02-21 13:38:46*
%MOMM*%
%LPD*%
G04 APERTURE LIST*
%ADD10C,0.100000*%
%ADD11R,1.300000X1.000000*%
%ADD12C,0.400000*%
G04 APERTURE END LIST*
G04 #@! TA.AperFunction,SMDPad,CuDef*
D10*
G36*
X2839207Y2498074D02*
G01*
X2878036Y2492314D01*
X2916114Y2482776D01*
X2953073Y2469552D01*
X2988559Y2452769D01*
X3022228Y2432588D01*
X3053757Y2409204D01*
X3082843Y2382843D01*
X3109204Y2353757D01*
X3132588Y2322228D01*
X3152769Y2288559D01*
X3169552Y2253073D01*
X3182776Y2216114D01*
X3192314Y2178036D01*
X3198074Y2139207D01*
X3200000Y2100000D01*
X3200000Y1900000D01*
X3198074Y1860793D01*
X3192314Y1821964D01*
X3182776Y1783886D01*
X3169552Y1746927D01*
X3152769Y1711441D01*
X3132588Y1677772D01*
X3109204Y1646243D01*
X3082843Y1617157D01*
X3053757Y1590796D01*
X3022228Y1567412D01*
X2988559Y1547231D01*
X2953073Y1530448D01*
X2916114Y1517224D01*
X2878036Y1507686D01*
X2839207Y1501926D01*
X2800000Y1500000D01*
X2300000Y1500000D01*
X2260793Y1501926D01*
X2221964Y1507686D01*
X2183886Y1517224D01*
X2146927Y1530448D01*
X2111441Y1547231D01*
X2077772Y1567412D01*
X2046243Y1590796D01*
X2017157Y1617157D01*
X1990796Y1646243D01*
X1967412Y1677772D01*
X1947231Y1711441D01*
X1930448Y1746927D01*
X1917224Y1783886D01*
X1907686Y1821964D01*
X1901926Y1860793D01*
X1900000Y1900000D01*
X1900000Y2100000D01*
X1901926Y2139207D01*
X1907686Y2178036D01*
X1917224Y2216114D01*
X1930448Y2253073D01*
X1947231Y2288559D01*
X1967412Y2322228D01*
X1990796Y2353757D01*
X2017157Y2382843D01*
X2046243Y2409204D01*
X2077772Y2432588D01*
X2111441Y2452769D01*
X2146927Y2469552D01*
X2183886Y2482776D01*
X2221964Y2492314D01*
X2260793Y2498074D01*
X2300000Y2500000D01*
X2800000Y2500000D01*
X2839207Y2498074D01*
G37*
G04 #@! TD.AperFunction*
G04 #@! TA.AperFunction,SMDPad,CuDef*
G36*
X939207Y998074D02*
G01*
X978036Y992314D01*
X1016114Y982776D01*
X1053073Y969552D01*
X1088559Y952769D01*
X1122228Y932588D01*
X1153757Y909204D01*
X1182843Y882843D01*
X1209204Y853757D01*
X1232588Y822228D01*
X1252769Y788559D01*
X1269552Y753073D01*
X1282776Y716114D01*
X1292314Y678036D01*
X1298074Y639207D01*
X1300000Y600000D01*
X1300000Y400000D01*
X1298074Y360793D01*
X1292314Y321964D01*
X1282776Y283886D01*
X1269552Y246927D01*
X1252769Y211441D01*
X1232588Y177772D01*
X1209204Y146243D01*
X1182843Y117157D01*
X1153757Y90796D01*
X1122228Y67412D01*
X1088559Y47231D01*
X1053073Y30448D01*
X1016114Y17224D01*
X978036Y7686D01*
X939207Y1926D01*
X900000Y0D01*
X400000Y0D01*
X360793Y1926D01*
X321964Y7686D01*
X283886Y17224D01*
X246927Y30448D01*
X211441Y47231D01*
X177772Y67412D01*
X146243Y90796D01*
X117157Y117157D01*
X90796Y146243D01*
X67412Y177772D01*
X47231Y211441D01*
X30448Y246927D01*
X17224Y283886D01*
X7686Y321964D01*
X1926Y360793D01*
X0Y400000D01*
X0Y600000D01*
X1926Y639207D01*
X7686Y678036D01*
X17224Y716114D01*
X30448Y753073D01*
X47231Y788559D01*
X67412Y822228D01*
X90796Y853757D01*
X117157Y882843D01*
X146243Y909204D01*
X177772Y932588D01*
X211441Y952769D01*
X246927Y969552D01*
X283886Y982776D01*
X321964Y992314D01*
X360793Y998074D01*
X400000Y1000000D01*
X900000Y1000000D01*
X939207Y998074D01*
G37*
G04 #@! TD.AperFunction*
D11*
X650000Y2000000D03*
X2550000Y500000D03*
D12*
X800000Y1875000D02*
X2400000Y625000D01*
M02*
