G04 #@! TF.GenerationSoftware,KiCad,Pcbnew,(5.1.5)-3*
G04 #@! TF.CreationDate,2020-02-21T12:08:19+01:00*
G04 #@! TF.ProjectId,acmp_test_fixture,61636d70-5f74-4657-9374-5f6669787475,rev?*
G04 #@! TF.SameCoordinates,Original*
G04 #@! TF.FileFunction,Other,ECO1*
%FSLAX46Y46*%
G04 Gerber Fmt 4.6, Leading zero omitted, Abs format (unit mm)*
G04 Created by KiCad (PCBNEW (5.1.5)-3) date 2020-02-21 12:08:19*
%MOMM*%
%LPD*%
G04 APERTURE LIST*
%ADD10C,0.300000*%
G04 APERTURE END LIST*
D10*
X7171428Y20292857D02*
X7171428Y21221428D01*
X6599999Y20721428D01*
X6599999Y20935714D01*
X6528571Y21078571D01*
X6457142Y21150000D01*
X6314285Y21221428D01*
X5957142Y21221428D01*
X5814285Y21150000D01*
X5742857Y21078571D01*
X5671428Y20935714D01*
X5671428Y20507142D01*
X5742857Y20364285D01*
X5814285Y20292857D01*
X5814285Y21864285D02*
X5742857Y21935714D01*
X5671428Y21864285D01*
X5742857Y21792857D01*
X5814285Y21864285D01*
X5671428Y21864285D01*
X7028571Y22507142D02*
X7100000Y22578571D01*
X7171428Y22721428D01*
X7171428Y23078571D01*
X7100000Y23221428D01*
X7028571Y23292857D01*
X6885714Y23364285D01*
X6742857Y23364285D01*
X6528571Y23292857D01*
X5671428Y22435714D01*
X5671428Y23364285D01*
X5671428Y25007142D02*
X6671428Y25792857D01*
X6671428Y25007142D02*
X5671428Y25792857D01*
X7028571Y27435714D02*
X7100000Y27507142D01*
X7171428Y27650000D01*
X7171428Y28007142D01*
X7100000Y28150000D01*
X7028571Y28221428D01*
X6885714Y28292857D01*
X6742857Y28292857D01*
X6528571Y28221428D01*
X5671428Y27364285D01*
X5671428Y28292857D01*
X5814285Y28935714D02*
X5742857Y29007142D01*
X5671428Y28935714D01*
X5742857Y28864285D01*
X5814285Y28935714D01*
X5671428Y28935714D01*
X7171428Y30364285D02*
X7171428Y29650000D01*
X6457142Y29578571D01*
X6528571Y29650000D01*
X6600000Y29792857D01*
X6600000Y30150000D01*
X6528571Y30292857D01*
X6457142Y30364285D01*
X6314285Y30435714D01*
X5957142Y30435714D01*
X5814285Y30364285D01*
X5742857Y30292857D01*
X5671428Y30150000D01*
X5671428Y29792857D01*
X5742857Y29650000D01*
X5814285Y29578571D01*
X31071428Y30435714D02*
X31000000Y30364285D01*
X30928571Y30221428D01*
X30928571Y29864285D01*
X31000000Y29721428D01*
X31071428Y29650000D01*
X31214285Y29578571D01*
X31357142Y29578571D01*
X31571428Y29650000D01*
X32428571Y30507142D01*
X32428571Y29578571D01*
X32285714Y28935714D02*
X32357142Y28864285D01*
X32428571Y28935714D01*
X32357142Y29007142D01*
X32285714Y28935714D01*
X32428571Y28935714D01*
X30928571Y27935714D02*
X30928571Y27792857D01*
X31000000Y27650000D01*
X31071428Y27578571D01*
X31214285Y27507142D01*
X31500000Y27435714D01*
X31857142Y27435714D01*
X32142857Y27507142D01*
X32285714Y27578571D01*
X32357142Y27650000D01*
X32428571Y27792857D01*
X32428571Y27935714D01*
X32357142Y28078571D01*
X32285714Y28150000D01*
X32142857Y28221428D01*
X31857142Y28292857D01*
X31500000Y28292857D01*
X31214285Y28221428D01*
X31071428Y28150000D01*
X31000000Y28078571D01*
X30928571Y27935714D01*
X32428571Y25792857D02*
X31428571Y25007142D01*
X31428571Y25792857D02*
X32428571Y25007142D01*
X32428571Y22507142D02*
X32428571Y23364285D01*
X32428571Y22935714D02*
X30928571Y22935714D01*
X31142857Y23078571D01*
X31285714Y23221428D01*
X31357142Y23364285D01*
X32285714Y21864285D02*
X32357142Y21792857D01*
X32428571Y21864285D01*
X32357142Y21935714D01*
X32285714Y21864285D01*
X32428571Y21864285D01*
X30928571Y20507142D02*
X30928571Y20792857D01*
X31000000Y20935714D01*
X31071428Y21007142D01*
X31285714Y21150000D01*
X31571428Y21221428D01*
X32142857Y21221428D01*
X32285714Y21150000D01*
X32357142Y21078571D01*
X32428571Y20935714D01*
X32428571Y20650000D01*
X32357142Y20507142D01*
X32285714Y20435714D01*
X32142857Y20364285D01*
X31785714Y20364285D01*
X31642857Y20435714D01*
X31571428Y20507142D01*
X31500000Y20650000D01*
X31500000Y20935714D01*
X31571428Y21078571D01*
X31642857Y21150000D01*
X31785714Y21221428D01*
M02*
