G04 #@! TF.GenerationSoftware,KiCad,Pcbnew,(5.1.5)-3*
G04 #@! TF.CreationDate,2020-02-21T12:08:19+01:00*
G04 #@! TF.ProjectId,acmp_test_fixture,61636d70-5f74-4657-9374-5f6669787475,rev?*
G04 #@! TF.SameCoordinates,Original*
G04 #@! TF.FileFunction,Profile,NP*
%FSLAX46Y46*%
G04 Gerber Fmt 4.6, Leading zero omitted, Abs format (unit mm)*
G04 Created by KiCad (PCBNEW (5.1.5)-3) date 2020-02-21 12:08:19*
%MOMM*%
%LPD*%
G04 APERTURE LIST*
%ADD10C,0.050000*%
G04 APERTURE END LIST*
D10*
X2540000Y0D02*
X35560000Y0D01*
X2540000Y50800000D02*
X35560000Y50800000D01*
X0Y7620000D02*
X0Y2540000D01*
X1270000Y7620000D02*
X0Y7620000D01*
X1270000Y17780000D02*
X1270000Y7620000D01*
X0Y17780000D02*
X1270000Y17780000D01*
X0Y33020000D02*
X0Y17780000D01*
X1270000Y33020000D02*
X0Y33020000D01*
X1270000Y43180000D02*
X1270000Y33020000D01*
X0Y43180000D02*
X1270000Y43180000D01*
X0Y48260000D02*
X0Y43180000D01*
X38100000Y7620000D02*
X38100000Y2540000D01*
X36830000Y7620000D02*
X38100000Y7620000D01*
X36830000Y17780000D02*
X36830000Y7620000D01*
X38100000Y17780000D02*
X36830000Y17780000D01*
X38100000Y33020000D02*
X38100000Y17780000D01*
X36830000Y33020000D02*
X38100000Y33020000D01*
X36830000Y43180000D02*
X36830000Y33020000D01*
X38100000Y43180000D02*
X36830000Y43180000D01*
X38100000Y48260000D02*
X38100000Y43180000D01*
X2540000Y0D02*
G75*
G02X0Y2540000I0J2540000D01*
G01*
X38100000Y2540000D02*
G75*
G02X35560000Y0I-2540000J0D01*
G01*
X35560000Y50800000D02*
G75*
G02X38100000Y48260000I0J-2540000D01*
G01*
X0Y48260000D02*
G75*
G02X2540000Y50800000I2540000J0D01*
G01*
M02*
