G04 #@! TF.GenerationSoftware,KiCad,Pcbnew,(5.1.5)-3*
G04 #@! TF.CreationDate,2020-02-21T12:08:19+01:00*
G04 #@! TF.ProjectId,acmp_test_fixture,61636d70-5f74-4657-9374-5f6669787475,rev?*
G04 #@! TF.SameCoordinates,Original*
G04 #@! TF.FileFunction,Copper,L1,Top*
G04 #@! TF.FilePolarity,Positive*
%FSLAX46Y46*%
G04 Gerber Fmt 4.6, Leading zero omitted, Abs format (unit mm)*
G04 Created by KiCad (PCBNEW (5.1.5)-3) date 2020-02-21 12:08:19*
%MOMM*%
%LPD*%
G04 APERTURE LIST*
%ADD10R,5.080000X1.500000*%
%ADD11R,1.200000X1.600000*%
%ADD12R,0.800000X1.200000*%
%ADD13C,1.200000*%
%ADD14C,0.254000*%
G04 APERTURE END LIST*
D10*
X4445000Y38100000D03*
X4445000Y33850000D03*
X4445000Y42350000D03*
X33655000Y38100000D03*
X33655000Y42350000D03*
X33655000Y33850000D03*
X33655000Y12700000D03*
X33655000Y16950000D03*
X33655000Y8450000D03*
X4445000Y12700000D03*
X4445000Y8450000D03*
X4445000Y16950000D03*
D11*
X13450000Y24350000D03*
X11950000Y24350000D03*
X11950000Y26450000D03*
X13450000Y26450000D03*
D12*
X25925000Y24675000D03*
X24875000Y24675000D03*
X24875000Y26125000D03*
X25925000Y26125000D03*
D13*
X4445000Y38100000D02*
X8890000Y38100000D01*
X13450000Y33540000D02*
X13450000Y26450000D01*
X8890000Y38100000D02*
X13450000Y33540000D01*
X4445000Y12700000D02*
X8890000Y12700000D01*
X11950000Y15760000D02*
X11950000Y24350000D01*
X8890000Y12700000D02*
X11950000Y15760000D01*
X33655000Y12700000D02*
X29915000Y12700000D01*
X24624999Y17990001D02*
X24624999Y24624999D01*
X29915000Y12700000D02*
X24624999Y17990001D01*
X33655000Y38100000D02*
X29210000Y38100000D01*
X26175001Y35065001D02*
X26175001Y26175001D01*
X29210000Y38100000D02*
X26175001Y35065001D01*
D14*
G36*
X35965143Y50306108D02*
G01*
X36354853Y50188447D01*
X36714282Y49997335D01*
X37029750Y49740045D01*
X37289233Y49426384D01*
X37482851Y49068295D01*
X37603230Y48679413D01*
X37648000Y48253453D01*
X37648001Y43632000D01*
X36852205Y43632000D01*
X36830000Y43634187D01*
X36807795Y43632000D01*
X36741393Y43625460D01*
X36656190Y43599614D01*
X36614395Y43577274D01*
X36549494Y43630537D01*
X36439180Y43689502D01*
X36319482Y43725812D01*
X36195000Y43738072D01*
X33940750Y43735000D01*
X33782000Y43576250D01*
X33782000Y42477000D01*
X33802000Y42477000D01*
X33802000Y42223000D01*
X33782000Y42223000D01*
X33782000Y41123750D01*
X33940750Y40965000D01*
X36195000Y40961928D01*
X36319482Y40974188D01*
X36378000Y40991939D01*
X36378000Y39236354D01*
X36359196Y39246405D01*
X36278707Y39270822D01*
X36195000Y39279066D01*
X31115000Y39279066D01*
X31031293Y39270822D01*
X30950804Y39246405D01*
X30876624Y39206755D01*
X30811605Y39153395D01*
X30789943Y39127000D01*
X29260443Y39127000D01*
X29210000Y39131968D01*
X29159556Y39127000D01*
X29159549Y39127000D01*
X29026831Y39113928D01*
X29008672Y39112140D01*
X28949947Y39094326D01*
X28815083Y39053415D01*
X28636669Y38958051D01*
X28636667Y38958050D01*
X28636668Y38958050D01*
X28519475Y38861873D01*
X28519470Y38861868D01*
X28480288Y38829712D01*
X28448132Y38790530D01*
X25484482Y35826878D01*
X25445289Y35794713D01*
X25316950Y35638332D01*
X25221586Y35459917D01*
X25162861Y35266327D01*
X25148001Y35115451D01*
X25148001Y35115442D01*
X25143033Y35065001D01*
X25148001Y35014560D01*
X25148002Y27347252D01*
X25002000Y27201250D01*
X25002000Y26252000D01*
X25022000Y26252000D01*
X25022000Y25998000D01*
X25002000Y25998000D01*
X25002000Y25978000D01*
X24748000Y25978000D01*
X24748000Y25998000D01*
X23998750Y25998000D01*
X23840000Y25839250D01*
X23836928Y25525000D01*
X23849188Y25400518D01*
X23871775Y25326060D01*
X23766949Y25198330D01*
X23671585Y25019916D01*
X23612860Y24826326D01*
X23598000Y24675450D01*
X23597999Y18040442D01*
X23593031Y17990001D01*
X23597999Y17939560D01*
X23597999Y17939551D01*
X23612859Y17788675D01*
X23671584Y17595085D01*
X23766948Y17416670D01*
X23895287Y17260289D01*
X23934480Y17228124D01*
X29153128Y12009475D01*
X29185288Y11970288D01*
X29341669Y11841949D01*
X29520083Y11746585D01*
X29713673Y11687860D01*
X29864549Y11673000D01*
X29864558Y11673000D01*
X29914999Y11668032D01*
X29965440Y11673000D01*
X30789943Y11673000D01*
X30811605Y11646605D01*
X30876624Y11593245D01*
X30950804Y11553595D01*
X31031293Y11529178D01*
X31115000Y11520934D01*
X36195000Y11520934D01*
X36278707Y11529178D01*
X36359196Y11553595D01*
X36378001Y11563646D01*
X36378001Y9808061D01*
X36319482Y9825812D01*
X36195000Y9838072D01*
X33940750Y9835000D01*
X33782000Y9676250D01*
X33782000Y8577000D01*
X33802000Y8577000D01*
X33802000Y8323000D01*
X33782000Y8323000D01*
X33782000Y7223750D01*
X33940750Y7065000D01*
X36195000Y7061928D01*
X36319482Y7074188D01*
X36439180Y7110498D01*
X36549494Y7169463D01*
X36614395Y7222726D01*
X36656190Y7200386D01*
X36741393Y7174540D01*
X36807795Y7168000D01*
X36830000Y7165813D01*
X36852205Y7168000D01*
X37648000Y7168000D01*
X37648001Y2562119D01*
X37606107Y2134857D01*
X37488450Y1745155D01*
X37297336Y1385721D01*
X37040045Y1070250D01*
X36726384Y810767D01*
X36368295Y617149D01*
X35979414Y496770D01*
X35553453Y452000D01*
X2562109Y452000D01*
X2134857Y493893D01*
X1745155Y611550D01*
X1385721Y802664D01*
X1070250Y1059955D01*
X810767Y1373616D01*
X617149Y1731705D01*
X496770Y2120586D01*
X452000Y2546547D01*
X452000Y3374642D01*
X1148000Y3374642D01*
X1148000Y2975358D01*
X1225896Y2583746D01*
X1378696Y2214855D01*
X1600526Y1882863D01*
X1882863Y1600526D01*
X2214855Y1378696D01*
X2583746Y1225896D01*
X2975358Y1148000D01*
X3374642Y1148000D01*
X3766254Y1225896D01*
X4135145Y1378696D01*
X4467137Y1600526D01*
X4749474Y1882863D01*
X4971304Y2214855D01*
X5124104Y2583746D01*
X5202000Y2975358D01*
X5202000Y3374642D01*
X32898000Y3374642D01*
X32898000Y2975358D01*
X32975896Y2583746D01*
X33128696Y2214855D01*
X33350526Y1882863D01*
X33632863Y1600526D01*
X33964855Y1378696D01*
X34333746Y1225896D01*
X34725358Y1148000D01*
X35124642Y1148000D01*
X35516254Y1225896D01*
X35885145Y1378696D01*
X36217137Y1600526D01*
X36499474Y1882863D01*
X36721304Y2214855D01*
X36874104Y2583746D01*
X36952000Y2975358D01*
X36952000Y3374642D01*
X36874104Y3766254D01*
X36721304Y4135145D01*
X36499474Y4467137D01*
X36217137Y4749474D01*
X35885145Y4971304D01*
X35516254Y5124104D01*
X35124642Y5202000D01*
X34725358Y5202000D01*
X34333746Y5124104D01*
X33964855Y4971304D01*
X33632863Y4749474D01*
X33350526Y4467137D01*
X33128696Y4135145D01*
X32975896Y3766254D01*
X32898000Y3374642D01*
X5202000Y3374642D01*
X5124104Y3766254D01*
X4971304Y4135145D01*
X4749474Y4467137D01*
X4467137Y4749474D01*
X4135145Y4971304D01*
X3766254Y5124104D01*
X3374642Y5202000D01*
X2975358Y5202000D01*
X2583746Y5124104D01*
X2214855Y4971304D01*
X1882863Y4749474D01*
X1600526Y4467137D01*
X1378696Y4135145D01*
X1225896Y3766254D01*
X1148000Y3374642D01*
X452000Y3374642D01*
X452000Y7168000D01*
X1247795Y7168000D01*
X1270000Y7165813D01*
X1292205Y7168000D01*
X1358607Y7174540D01*
X1443810Y7200386D01*
X1485605Y7222726D01*
X1550506Y7169463D01*
X1660820Y7110498D01*
X1780518Y7074188D01*
X1905000Y7061928D01*
X4159250Y7065000D01*
X4318000Y7223750D01*
X4318000Y8323000D01*
X4572000Y8323000D01*
X4572000Y7223750D01*
X4730750Y7065000D01*
X6985000Y7061928D01*
X7109482Y7074188D01*
X7229180Y7110498D01*
X7339494Y7169463D01*
X7436185Y7248815D01*
X7515537Y7345506D01*
X7574502Y7455820D01*
X7610812Y7575518D01*
X7623072Y7700000D01*
X30476928Y7700000D01*
X30489188Y7575518D01*
X30525498Y7455820D01*
X30584463Y7345506D01*
X30663815Y7248815D01*
X30760506Y7169463D01*
X30870820Y7110498D01*
X30990518Y7074188D01*
X31115000Y7061928D01*
X33369250Y7065000D01*
X33528000Y7223750D01*
X33528000Y8323000D01*
X30638750Y8323000D01*
X30480000Y8164250D01*
X30476928Y7700000D01*
X7623072Y7700000D01*
X7620000Y8164250D01*
X7461250Y8323000D01*
X4572000Y8323000D01*
X4318000Y8323000D01*
X4298000Y8323000D01*
X4298000Y8577000D01*
X4318000Y8577000D01*
X4318000Y9676250D01*
X4572000Y9676250D01*
X4572000Y8577000D01*
X7461250Y8577000D01*
X7620000Y8735750D01*
X7623072Y9200000D01*
X30476928Y9200000D01*
X30480000Y8735750D01*
X30638750Y8577000D01*
X33528000Y8577000D01*
X33528000Y9676250D01*
X33369250Y9835000D01*
X31115000Y9838072D01*
X30990518Y9825812D01*
X30870820Y9789502D01*
X30760506Y9730537D01*
X30663815Y9651185D01*
X30584463Y9554494D01*
X30525498Y9444180D01*
X30489188Y9324482D01*
X30476928Y9200000D01*
X7623072Y9200000D01*
X7610812Y9324482D01*
X7574502Y9444180D01*
X7515537Y9554494D01*
X7436185Y9651185D01*
X7339494Y9730537D01*
X7229180Y9789502D01*
X7109482Y9825812D01*
X6985000Y9838072D01*
X4730750Y9835000D01*
X4572000Y9676250D01*
X4318000Y9676250D01*
X4159250Y9835000D01*
X1905000Y9838072D01*
X1780518Y9825812D01*
X1722000Y9808061D01*
X1722000Y11563646D01*
X1740804Y11553595D01*
X1821293Y11529178D01*
X1905000Y11520934D01*
X6985000Y11520934D01*
X7068707Y11529178D01*
X7149196Y11553595D01*
X7223376Y11593245D01*
X7288395Y11646605D01*
X7310057Y11673000D01*
X8839559Y11673000D01*
X8890000Y11668032D01*
X8940441Y11673000D01*
X8940451Y11673000D01*
X9091327Y11687860D01*
X9284917Y11746585D01*
X9463331Y11841949D01*
X9619712Y11970288D01*
X9651877Y12009481D01*
X12640530Y14998132D01*
X12679712Y15030288D01*
X12711868Y15069470D01*
X12711873Y15069475D01*
X12808051Y15186668D01*
X12903415Y15365082D01*
X12962140Y15558672D01*
X12967244Y15610498D01*
X12977000Y15709549D01*
X12977000Y15709556D01*
X12981968Y15760000D01*
X12977000Y15810443D01*
X12977000Y22913170D01*
X13164250Y22915000D01*
X13323000Y23073750D01*
X13323000Y24223000D01*
X13577000Y24223000D01*
X13577000Y23073750D01*
X13735750Y22915000D01*
X14050000Y22911928D01*
X14174482Y22924188D01*
X14294180Y22960498D01*
X14404494Y23019463D01*
X14501185Y23098815D01*
X14580537Y23195506D01*
X14639502Y23305820D01*
X14675812Y23425518D01*
X14688072Y23550000D01*
X14685000Y24064250D01*
X14526250Y24223000D01*
X13577000Y24223000D01*
X13323000Y24223000D01*
X13303000Y24223000D01*
X13303000Y24477000D01*
X13323000Y24477000D01*
X13323000Y24497000D01*
X13577000Y24497000D01*
X13577000Y24477000D01*
X14526250Y24477000D01*
X14685000Y24635750D01*
X14688072Y25150000D01*
X14675812Y25274482D01*
X14639502Y25394180D01*
X14580537Y25504494D01*
X14501185Y25601185D01*
X14476272Y25621631D01*
X14479066Y25650000D01*
X14479066Y26725000D01*
X23836928Y26725000D01*
X23840000Y26410750D01*
X23998750Y26252000D01*
X24748000Y26252000D01*
X24748000Y27201250D01*
X24589250Y27360000D01*
X24475000Y27363072D01*
X24350518Y27350812D01*
X24230820Y27314502D01*
X24120506Y27255537D01*
X24023815Y27176185D01*
X23944463Y27079494D01*
X23885498Y26969180D01*
X23849188Y26849482D01*
X23836928Y26725000D01*
X14479066Y26725000D01*
X14479066Y27250000D01*
X14477000Y27270978D01*
X14477000Y33489557D01*
X14481968Y33540000D01*
X14477000Y33590444D01*
X14477000Y33590451D01*
X14462140Y33741327D01*
X14403415Y33934917D01*
X14308051Y34113331D01*
X14289652Y34135750D01*
X14211873Y34230525D01*
X14211868Y34230530D01*
X14179712Y34269712D01*
X14140530Y34301868D01*
X9651877Y38790519D01*
X9619712Y38829712D01*
X9463331Y38958051D01*
X9284917Y39053415D01*
X9091327Y39112140D01*
X8940451Y39127000D01*
X8940441Y39127000D01*
X8890000Y39131968D01*
X8839559Y39127000D01*
X7310057Y39127000D01*
X7288395Y39153395D01*
X7223376Y39206755D01*
X7149196Y39246405D01*
X7068707Y39270822D01*
X6985000Y39279066D01*
X1905000Y39279066D01*
X1821293Y39270822D01*
X1740804Y39246405D01*
X1722000Y39236354D01*
X1722000Y40991939D01*
X1780518Y40974188D01*
X1905000Y40961928D01*
X4159250Y40965000D01*
X4318000Y41123750D01*
X4318000Y42223000D01*
X4572000Y42223000D01*
X4572000Y41123750D01*
X4730750Y40965000D01*
X6985000Y40961928D01*
X7109482Y40974188D01*
X7229180Y41010498D01*
X7339494Y41069463D01*
X7436185Y41148815D01*
X7515537Y41245506D01*
X7574502Y41355820D01*
X7610812Y41475518D01*
X7623072Y41600000D01*
X30476928Y41600000D01*
X30489188Y41475518D01*
X30525498Y41355820D01*
X30584463Y41245506D01*
X30663815Y41148815D01*
X30760506Y41069463D01*
X30870820Y41010498D01*
X30990518Y40974188D01*
X31115000Y40961928D01*
X33369250Y40965000D01*
X33528000Y41123750D01*
X33528000Y42223000D01*
X30638750Y42223000D01*
X30480000Y42064250D01*
X30476928Y41600000D01*
X7623072Y41600000D01*
X7620000Y42064250D01*
X7461250Y42223000D01*
X4572000Y42223000D01*
X4318000Y42223000D01*
X4298000Y42223000D01*
X4298000Y42477000D01*
X4318000Y42477000D01*
X4318000Y43576250D01*
X4572000Y43576250D01*
X4572000Y42477000D01*
X7461250Y42477000D01*
X7620000Y42635750D01*
X7623072Y43100000D01*
X30476928Y43100000D01*
X30480000Y42635750D01*
X30638750Y42477000D01*
X33528000Y42477000D01*
X33528000Y43576250D01*
X33369250Y43735000D01*
X31115000Y43738072D01*
X30990518Y43725812D01*
X30870820Y43689502D01*
X30760506Y43630537D01*
X30663815Y43551185D01*
X30584463Y43454494D01*
X30525498Y43344180D01*
X30489188Y43224482D01*
X30476928Y43100000D01*
X7623072Y43100000D01*
X7610812Y43224482D01*
X7574502Y43344180D01*
X7515537Y43454494D01*
X7436185Y43551185D01*
X7339494Y43630537D01*
X7229180Y43689502D01*
X7109482Y43725812D01*
X6985000Y43738072D01*
X4730750Y43735000D01*
X4572000Y43576250D01*
X4318000Y43576250D01*
X4159250Y43735000D01*
X1905000Y43738072D01*
X1780518Y43725812D01*
X1660820Y43689502D01*
X1550506Y43630537D01*
X1485605Y43577274D01*
X1443810Y43599614D01*
X1358607Y43625460D01*
X1292205Y43632000D01*
X1270000Y43634187D01*
X1247795Y43632000D01*
X452000Y43632000D01*
X452000Y47824642D01*
X1148000Y47824642D01*
X1148000Y47425358D01*
X1225896Y47033746D01*
X1378696Y46664855D01*
X1600526Y46332863D01*
X1882863Y46050526D01*
X2214855Y45828696D01*
X2583746Y45675896D01*
X2975358Y45598000D01*
X3374642Y45598000D01*
X3766254Y45675896D01*
X4135145Y45828696D01*
X4467137Y46050526D01*
X4749474Y46332863D01*
X4971304Y46664855D01*
X5124104Y47033746D01*
X5202000Y47425358D01*
X5202000Y47824642D01*
X32898000Y47824642D01*
X32898000Y47425358D01*
X32975896Y47033746D01*
X33128696Y46664855D01*
X33350526Y46332863D01*
X33632863Y46050526D01*
X33964855Y45828696D01*
X34333746Y45675896D01*
X34725358Y45598000D01*
X35124642Y45598000D01*
X35516254Y45675896D01*
X35885145Y45828696D01*
X36217137Y46050526D01*
X36499474Y46332863D01*
X36721304Y46664855D01*
X36874104Y47033746D01*
X36952000Y47425358D01*
X36952000Y47824642D01*
X36874104Y48216254D01*
X36721304Y48585145D01*
X36499474Y48917137D01*
X36217137Y49199474D01*
X35885145Y49421304D01*
X35516254Y49574104D01*
X35124642Y49652000D01*
X34725358Y49652000D01*
X34333746Y49574104D01*
X33964855Y49421304D01*
X33632863Y49199474D01*
X33350526Y48917137D01*
X33128696Y48585145D01*
X32975896Y48216254D01*
X32898000Y47824642D01*
X5202000Y47824642D01*
X5124104Y48216254D01*
X4971304Y48585145D01*
X4749474Y48917137D01*
X4467137Y49199474D01*
X4135145Y49421304D01*
X3766254Y49574104D01*
X3374642Y49652000D01*
X2975358Y49652000D01*
X2583746Y49574104D01*
X2214855Y49421304D01*
X1882863Y49199474D01*
X1600526Y48917137D01*
X1378696Y48585145D01*
X1225896Y48216254D01*
X1148000Y47824642D01*
X452000Y47824642D01*
X452000Y48237891D01*
X493892Y48665143D01*
X611553Y49054853D01*
X802665Y49414282D01*
X1059955Y49729750D01*
X1373616Y49989233D01*
X1731705Y50182851D01*
X2120587Y50303230D01*
X2546547Y50348000D01*
X35537891Y50348000D01*
X35965143Y50306108D01*
G37*
X35965143Y50306108D02*
X36354853Y50188447D01*
X36714282Y49997335D01*
X37029750Y49740045D01*
X37289233Y49426384D01*
X37482851Y49068295D01*
X37603230Y48679413D01*
X37648000Y48253453D01*
X37648001Y43632000D01*
X36852205Y43632000D01*
X36830000Y43634187D01*
X36807795Y43632000D01*
X36741393Y43625460D01*
X36656190Y43599614D01*
X36614395Y43577274D01*
X36549494Y43630537D01*
X36439180Y43689502D01*
X36319482Y43725812D01*
X36195000Y43738072D01*
X33940750Y43735000D01*
X33782000Y43576250D01*
X33782000Y42477000D01*
X33802000Y42477000D01*
X33802000Y42223000D01*
X33782000Y42223000D01*
X33782000Y41123750D01*
X33940750Y40965000D01*
X36195000Y40961928D01*
X36319482Y40974188D01*
X36378000Y40991939D01*
X36378000Y39236354D01*
X36359196Y39246405D01*
X36278707Y39270822D01*
X36195000Y39279066D01*
X31115000Y39279066D01*
X31031293Y39270822D01*
X30950804Y39246405D01*
X30876624Y39206755D01*
X30811605Y39153395D01*
X30789943Y39127000D01*
X29260443Y39127000D01*
X29210000Y39131968D01*
X29159556Y39127000D01*
X29159549Y39127000D01*
X29026831Y39113928D01*
X29008672Y39112140D01*
X28949947Y39094326D01*
X28815083Y39053415D01*
X28636669Y38958051D01*
X28636667Y38958050D01*
X28636668Y38958050D01*
X28519475Y38861873D01*
X28519470Y38861868D01*
X28480288Y38829712D01*
X28448132Y38790530D01*
X25484482Y35826878D01*
X25445289Y35794713D01*
X25316950Y35638332D01*
X25221586Y35459917D01*
X25162861Y35266327D01*
X25148001Y35115451D01*
X25148001Y35115442D01*
X25143033Y35065001D01*
X25148001Y35014560D01*
X25148002Y27347252D01*
X25002000Y27201250D01*
X25002000Y26252000D01*
X25022000Y26252000D01*
X25022000Y25998000D01*
X25002000Y25998000D01*
X25002000Y25978000D01*
X24748000Y25978000D01*
X24748000Y25998000D01*
X23998750Y25998000D01*
X23840000Y25839250D01*
X23836928Y25525000D01*
X23849188Y25400518D01*
X23871775Y25326060D01*
X23766949Y25198330D01*
X23671585Y25019916D01*
X23612860Y24826326D01*
X23598000Y24675450D01*
X23597999Y18040442D01*
X23593031Y17990001D01*
X23597999Y17939560D01*
X23597999Y17939551D01*
X23612859Y17788675D01*
X23671584Y17595085D01*
X23766948Y17416670D01*
X23895287Y17260289D01*
X23934480Y17228124D01*
X29153128Y12009475D01*
X29185288Y11970288D01*
X29341669Y11841949D01*
X29520083Y11746585D01*
X29713673Y11687860D01*
X29864549Y11673000D01*
X29864558Y11673000D01*
X29914999Y11668032D01*
X29965440Y11673000D01*
X30789943Y11673000D01*
X30811605Y11646605D01*
X30876624Y11593245D01*
X30950804Y11553595D01*
X31031293Y11529178D01*
X31115000Y11520934D01*
X36195000Y11520934D01*
X36278707Y11529178D01*
X36359196Y11553595D01*
X36378001Y11563646D01*
X36378001Y9808061D01*
X36319482Y9825812D01*
X36195000Y9838072D01*
X33940750Y9835000D01*
X33782000Y9676250D01*
X33782000Y8577000D01*
X33802000Y8577000D01*
X33802000Y8323000D01*
X33782000Y8323000D01*
X33782000Y7223750D01*
X33940750Y7065000D01*
X36195000Y7061928D01*
X36319482Y7074188D01*
X36439180Y7110498D01*
X36549494Y7169463D01*
X36614395Y7222726D01*
X36656190Y7200386D01*
X36741393Y7174540D01*
X36807795Y7168000D01*
X36830000Y7165813D01*
X36852205Y7168000D01*
X37648000Y7168000D01*
X37648001Y2562119D01*
X37606107Y2134857D01*
X37488450Y1745155D01*
X37297336Y1385721D01*
X37040045Y1070250D01*
X36726384Y810767D01*
X36368295Y617149D01*
X35979414Y496770D01*
X35553453Y452000D01*
X2562109Y452000D01*
X2134857Y493893D01*
X1745155Y611550D01*
X1385721Y802664D01*
X1070250Y1059955D01*
X810767Y1373616D01*
X617149Y1731705D01*
X496770Y2120586D01*
X452000Y2546547D01*
X452000Y3374642D01*
X1148000Y3374642D01*
X1148000Y2975358D01*
X1225896Y2583746D01*
X1378696Y2214855D01*
X1600526Y1882863D01*
X1882863Y1600526D01*
X2214855Y1378696D01*
X2583746Y1225896D01*
X2975358Y1148000D01*
X3374642Y1148000D01*
X3766254Y1225896D01*
X4135145Y1378696D01*
X4467137Y1600526D01*
X4749474Y1882863D01*
X4971304Y2214855D01*
X5124104Y2583746D01*
X5202000Y2975358D01*
X5202000Y3374642D01*
X32898000Y3374642D01*
X32898000Y2975358D01*
X32975896Y2583746D01*
X33128696Y2214855D01*
X33350526Y1882863D01*
X33632863Y1600526D01*
X33964855Y1378696D01*
X34333746Y1225896D01*
X34725358Y1148000D01*
X35124642Y1148000D01*
X35516254Y1225896D01*
X35885145Y1378696D01*
X36217137Y1600526D01*
X36499474Y1882863D01*
X36721304Y2214855D01*
X36874104Y2583746D01*
X36952000Y2975358D01*
X36952000Y3374642D01*
X36874104Y3766254D01*
X36721304Y4135145D01*
X36499474Y4467137D01*
X36217137Y4749474D01*
X35885145Y4971304D01*
X35516254Y5124104D01*
X35124642Y5202000D01*
X34725358Y5202000D01*
X34333746Y5124104D01*
X33964855Y4971304D01*
X33632863Y4749474D01*
X33350526Y4467137D01*
X33128696Y4135145D01*
X32975896Y3766254D01*
X32898000Y3374642D01*
X5202000Y3374642D01*
X5124104Y3766254D01*
X4971304Y4135145D01*
X4749474Y4467137D01*
X4467137Y4749474D01*
X4135145Y4971304D01*
X3766254Y5124104D01*
X3374642Y5202000D01*
X2975358Y5202000D01*
X2583746Y5124104D01*
X2214855Y4971304D01*
X1882863Y4749474D01*
X1600526Y4467137D01*
X1378696Y4135145D01*
X1225896Y3766254D01*
X1148000Y3374642D01*
X452000Y3374642D01*
X452000Y7168000D01*
X1247795Y7168000D01*
X1270000Y7165813D01*
X1292205Y7168000D01*
X1358607Y7174540D01*
X1443810Y7200386D01*
X1485605Y7222726D01*
X1550506Y7169463D01*
X1660820Y7110498D01*
X1780518Y7074188D01*
X1905000Y7061928D01*
X4159250Y7065000D01*
X4318000Y7223750D01*
X4318000Y8323000D01*
X4572000Y8323000D01*
X4572000Y7223750D01*
X4730750Y7065000D01*
X6985000Y7061928D01*
X7109482Y7074188D01*
X7229180Y7110498D01*
X7339494Y7169463D01*
X7436185Y7248815D01*
X7515537Y7345506D01*
X7574502Y7455820D01*
X7610812Y7575518D01*
X7623072Y7700000D01*
X30476928Y7700000D01*
X30489188Y7575518D01*
X30525498Y7455820D01*
X30584463Y7345506D01*
X30663815Y7248815D01*
X30760506Y7169463D01*
X30870820Y7110498D01*
X30990518Y7074188D01*
X31115000Y7061928D01*
X33369250Y7065000D01*
X33528000Y7223750D01*
X33528000Y8323000D01*
X30638750Y8323000D01*
X30480000Y8164250D01*
X30476928Y7700000D01*
X7623072Y7700000D01*
X7620000Y8164250D01*
X7461250Y8323000D01*
X4572000Y8323000D01*
X4318000Y8323000D01*
X4298000Y8323000D01*
X4298000Y8577000D01*
X4318000Y8577000D01*
X4318000Y9676250D01*
X4572000Y9676250D01*
X4572000Y8577000D01*
X7461250Y8577000D01*
X7620000Y8735750D01*
X7623072Y9200000D01*
X30476928Y9200000D01*
X30480000Y8735750D01*
X30638750Y8577000D01*
X33528000Y8577000D01*
X33528000Y9676250D01*
X33369250Y9835000D01*
X31115000Y9838072D01*
X30990518Y9825812D01*
X30870820Y9789502D01*
X30760506Y9730537D01*
X30663815Y9651185D01*
X30584463Y9554494D01*
X30525498Y9444180D01*
X30489188Y9324482D01*
X30476928Y9200000D01*
X7623072Y9200000D01*
X7610812Y9324482D01*
X7574502Y9444180D01*
X7515537Y9554494D01*
X7436185Y9651185D01*
X7339494Y9730537D01*
X7229180Y9789502D01*
X7109482Y9825812D01*
X6985000Y9838072D01*
X4730750Y9835000D01*
X4572000Y9676250D01*
X4318000Y9676250D01*
X4159250Y9835000D01*
X1905000Y9838072D01*
X1780518Y9825812D01*
X1722000Y9808061D01*
X1722000Y11563646D01*
X1740804Y11553595D01*
X1821293Y11529178D01*
X1905000Y11520934D01*
X6985000Y11520934D01*
X7068707Y11529178D01*
X7149196Y11553595D01*
X7223376Y11593245D01*
X7288395Y11646605D01*
X7310057Y11673000D01*
X8839559Y11673000D01*
X8890000Y11668032D01*
X8940441Y11673000D01*
X8940451Y11673000D01*
X9091327Y11687860D01*
X9284917Y11746585D01*
X9463331Y11841949D01*
X9619712Y11970288D01*
X9651877Y12009481D01*
X12640530Y14998132D01*
X12679712Y15030288D01*
X12711868Y15069470D01*
X12711873Y15069475D01*
X12808051Y15186668D01*
X12903415Y15365082D01*
X12962140Y15558672D01*
X12967244Y15610498D01*
X12977000Y15709549D01*
X12977000Y15709556D01*
X12981968Y15760000D01*
X12977000Y15810443D01*
X12977000Y22913170D01*
X13164250Y22915000D01*
X13323000Y23073750D01*
X13323000Y24223000D01*
X13577000Y24223000D01*
X13577000Y23073750D01*
X13735750Y22915000D01*
X14050000Y22911928D01*
X14174482Y22924188D01*
X14294180Y22960498D01*
X14404494Y23019463D01*
X14501185Y23098815D01*
X14580537Y23195506D01*
X14639502Y23305820D01*
X14675812Y23425518D01*
X14688072Y23550000D01*
X14685000Y24064250D01*
X14526250Y24223000D01*
X13577000Y24223000D01*
X13323000Y24223000D01*
X13303000Y24223000D01*
X13303000Y24477000D01*
X13323000Y24477000D01*
X13323000Y24497000D01*
X13577000Y24497000D01*
X13577000Y24477000D01*
X14526250Y24477000D01*
X14685000Y24635750D01*
X14688072Y25150000D01*
X14675812Y25274482D01*
X14639502Y25394180D01*
X14580537Y25504494D01*
X14501185Y25601185D01*
X14476272Y25621631D01*
X14479066Y25650000D01*
X14479066Y26725000D01*
X23836928Y26725000D01*
X23840000Y26410750D01*
X23998750Y26252000D01*
X24748000Y26252000D01*
X24748000Y27201250D01*
X24589250Y27360000D01*
X24475000Y27363072D01*
X24350518Y27350812D01*
X24230820Y27314502D01*
X24120506Y27255537D01*
X24023815Y27176185D01*
X23944463Y27079494D01*
X23885498Y26969180D01*
X23849188Y26849482D01*
X23836928Y26725000D01*
X14479066Y26725000D01*
X14479066Y27250000D01*
X14477000Y27270978D01*
X14477000Y33489557D01*
X14481968Y33540000D01*
X14477000Y33590444D01*
X14477000Y33590451D01*
X14462140Y33741327D01*
X14403415Y33934917D01*
X14308051Y34113331D01*
X14289652Y34135750D01*
X14211873Y34230525D01*
X14211868Y34230530D01*
X14179712Y34269712D01*
X14140530Y34301868D01*
X9651877Y38790519D01*
X9619712Y38829712D01*
X9463331Y38958051D01*
X9284917Y39053415D01*
X9091327Y39112140D01*
X8940451Y39127000D01*
X8940441Y39127000D01*
X8890000Y39131968D01*
X8839559Y39127000D01*
X7310057Y39127000D01*
X7288395Y39153395D01*
X7223376Y39206755D01*
X7149196Y39246405D01*
X7068707Y39270822D01*
X6985000Y39279066D01*
X1905000Y39279066D01*
X1821293Y39270822D01*
X1740804Y39246405D01*
X1722000Y39236354D01*
X1722000Y40991939D01*
X1780518Y40974188D01*
X1905000Y40961928D01*
X4159250Y40965000D01*
X4318000Y41123750D01*
X4318000Y42223000D01*
X4572000Y42223000D01*
X4572000Y41123750D01*
X4730750Y40965000D01*
X6985000Y40961928D01*
X7109482Y40974188D01*
X7229180Y41010498D01*
X7339494Y41069463D01*
X7436185Y41148815D01*
X7515537Y41245506D01*
X7574502Y41355820D01*
X7610812Y41475518D01*
X7623072Y41600000D01*
X30476928Y41600000D01*
X30489188Y41475518D01*
X30525498Y41355820D01*
X30584463Y41245506D01*
X30663815Y41148815D01*
X30760506Y41069463D01*
X30870820Y41010498D01*
X30990518Y40974188D01*
X31115000Y40961928D01*
X33369250Y40965000D01*
X33528000Y41123750D01*
X33528000Y42223000D01*
X30638750Y42223000D01*
X30480000Y42064250D01*
X30476928Y41600000D01*
X7623072Y41600000D01*
X7620000Y42064250D01*
X7461250Y42223000D01*
X4572000Y42223000D01*
X4318000Y42223000D01*
X4298000Y42223000D01*
X4298000Y42477000D01*
X4318000Y42477000D01*
X4318000Y43576250D01*
X4572000Y43576250D01*
X4572000Y42477000D01*
X7461250Y42477000D01*
X7620000Y42635750D01*
X7623072Y43100000D01*
X30476928Y43100000D01*
X30480000Y42635750D01*
X30638750Y42477000D01*
X33528000Y42477000D01*
X33528000Y43576250D01*
X33369250Y43735000D01*
X31115000Y43738072D01*
X30990518Y43725812D01*
X30870820Y43689502D01*
X30760506Y43630537D01*
X30663815Y43551185D01*
X30584463Y43454494D01*
X30525498Y43344180D01*
X30489188Y43224482D01*
X30476928Y43100000D01*
X7623072Y43100000D01*
X7610812Y43224482D01*
X7574502Y43344180D01*
X7515537Y43454494D01*
X7436185Y43551185D01*
X7339494Y43630537D01*
X7229180Y43689502D01*
X7109482Y43725812D01*
X6985000Y43738072D01*
X4730750Y43735000D01*
X4572000Y43576250D01*
X4318000Y43576250D01*
X4159250Y43735000D01*
X1905000Y43738072D01*
X1780518Y43725812D01*
X1660820Y43689502D01*
X1550506Y43630537D01*
X1485605Y43577274D01*
X1443810Y43599614D01*
X1358607Y43625460D01*
X1292205Y43632000D01*
X1270000Y43634187D01*
X1247795Y43632000D01*
X452000Y43632000D01*
X452000Y47824642D01*
X1148000Y47824642D01*
X1148000Y47425358D01*
X1225896Y47033746D01*
X1378696Y46664855D01*
X1600526Y46332863D01*
X1882863Y46050526D01*
X2214855Y45828696D01*
X2583746Y45675896D01*
X2975358Y45598000D01*
X3374642Y45598000D01*
X3766254Y45675896D01*
X4135145Y45828696D01*
X4467137Y46050526D01*
X4749474Y46332863D01*
X4971304Y46664855D01*
X5124104Y47033746D01*
X5202000Y47425358D01*
X5202000Y47824642D01*
X32898000Y47824642D01*
X32898000Y47425358D01*
X32975896Y47033746D01*
X33128696Y46664855D01*
X33350526Y46332863D01*
X33632863Y46050526D01*
X33964855Y45828696D01*
X34333746Y45675896D01*
X34725358Y45598000D01*
X35124642Y45598000D01*
X35516254Y45675896D01*
X35885145Y45828696D01*
X36217137Y46050526D01*
X36499474Y46332863D01*
X36721304Y46664855D01*
X36874104Y47033746D01*
X36952000Y47425358D01*
X36952000Y47824642D01*
X36874104Y48216254D01*
X36721304Y48585145D01*
X36499474Y48917137D01*
X36217137Y49199474D01*
X35885145Y49421304D01*
X35516254Y49574104D01*
X35124642Y49652000D01*
X34725358Y49652000D01*
X34333746Y49574104D01*
X33964855Y49421304D01*
X33632863Y49199474D01*
X33350526Y48917137D01*
X33128696Y48585145D01*
X32975896Y48216254D01*
X32898000Y47824642D01*
X5202000Y47824642D01*
X5124104Y48216254D01*
X4971304Y48585145D01*
X4749474Y48917137D01*
X4467137Y49199474D01*
X4135145Y49421304D01*
X3766254Y49574104D01*
X3374642Y49652000D01*
X2975358Y49652000D01*
X2583746Y49574104D01*
X2214855Y49421304D01*
X1882863Y49199474D01*
X1600526Y48917137D01*
X1378696Y48585145D01*
X1225896Y48216254D01*
X1148000Y47824642D01*
X452000Y47824642D01*
X452000Y48237891D01*
X493892Y48665143D01*
X611553Y49054853D01*
X802665Y49414282D01*
X1059955Y49729750D01*
X1373616Y49989233D01*
X1731705Y50182851D01*
X2120587Y50303230D01*
X2546547Y50348000D01*
X35537891Y50348000D01*
X35965143Y50306108D01*
G36*
X30811605Y37046605D02*
G01*
X30876624Y36993245D01*
X30950804Y36953595D01*
X31031293Y36929178D01*
X31115000Y36920934D01*
X36195000Y36920934D01*
X36278707Y36929178D01*
X36359196Y36953595D01*
X36378001Y36963646D01*
X36378001Y35208061D01*
X36319482Y35225812D01*
X36195000Y35238072D01*
X33940750Y35235000D01*
X33782000Y35076250D01*
X33782000Y33977000D01*
X33802000Y33977000D01*
X33802000Y33723000D01*
X33782000Y33723000D01*
X33782000Y32623750D01*
X33940750Y32465000D01*
X36195000Y32461928D01*
X36319482Y32474188D01*
X36439180Y32510498D01*
X36549494Y32569463D01*
X36614395Y32622726D01*
X36656190Y32600386D01*
X36741393Y32574540D01*
X36807795Y32568000D01*
X36830000Y32565813D01*
X36852205Y32568000D01*
X37648000Y32568000D01*
X37648001Y18232000D01*
X36852205Y18232000D01*
X36830000Y18234187D01*
X36807795Y18232000D01*
X36741393Y18225460D01*
X36656190Y18199614D01*
X36614395Y18177274D01*
X36549494Y18230537D01*
X36439180Y18289502D01*
X36319482Y18325812D01*
X36195000Y18338072D01*
X33940750Y18335000D01*
X33782000Y18176250D01*
X33782000Y17077000D01*
X33802000Y17077000D01*
X33802000Y16823000D01*
X33782000Y16823000D01*
X33782000Y15723750D01*
X33940750Y15565000D01*
X36195000Y15561928D01*
X36319482Y15574188D01*
X36378000Y15591939D01*
X36378000Y13836354D01*
X36359196Y13846405D01*
X36278707Y13870822D01*
X36195000Y13879066D01*
X31115000Y13879066D01*
X31031293Y13870822D01*
X30950804Y13846405D01*
X30876624Y13806755D01*
X30811605Y13753395D01*
X30789943Y13727000D01*
X30340397Y13727000D01*
X27867397Y16200000D01*
X30476928Y16200000D01*
X30489188Y16075518D01*
X30525498Y15955820D01*
X30584463Y15845506D01*
X30663815Y15748815D01*
X30760506Y15669463D01*
X30870820Y15610498D01*
X30990518Y15574188D01*
X31115000Y15561928D01*
X33369250Y15565000D01*
X33528000Y15723750D01*
X33528000Y16823000D01*
X30638750Y16823000D01*
X30480000Y16664250D01*
X30476928Y16200000D01*
X27867397Y16200000D01*
X26367397Y17700000D01*
X30476928Y17700000D01*
X30480000Y17235750D01*
X30638750Y17077000D01*
X33528000Y17077000D01*
X33528000Y18176250D01*
X33369250Y18335000D01*
X31115000Y18338072D01*
X30990518Y18325812D01*
X30870820Y18289502D01*
X30760506Y18230537D01*
X30663815Y18151185D01*
X30584463Y18054494D01*
X30525498Y17944180D01*
X30489188Y17824482D01*
X30476928Y17700000D01*
X26367397Y17700000D01*
X25651999Y18415397D01*
X25651999Y23452749D01*
X25798000Y23598750D01*
X25798000Y24548000D01*
X26052000Y24548000D01*
X26052000Y23598750D01*
X26210750Y23440000D01*
X26325000Y23436928D01*
X26449482Y23449188D01*
X26569180Y23485498D01*
X26679494Y23544463D01*
X26776185Y23623815D01*
X26855537Y23720506D01*
X26914502Y23830820D01*
X26950812Y23950518D01*
X26963072Y24075000D01*
X26960000Y24389250D01*
X26801250Y24548000D01*
X26052000Y24548000D01*
X25798000Y24548000D01*
X25778000Y24548000D01*
X25778000Y24802000D01*
X25798000Y24802000D01*
X25798000Y24822000D01*
X26052000Y24822000D01*
X26052000Y24802000D01*
X26801250Y24802000D01*
X26960000Y24960750D01*
X26963072Y25275000D01*
X26950812Y25399482D01*
X26928226Y25473939D01*
X27033052Y25601670D01*
X27128416Y25780084D01*
X27187141Y25973674D01*
X27202001Y26124550D01*
X27202001Y33100000D01*
X30476928Y33100000D01*
X30489188Y32975518D01*
X30525498Y32855820D01*
X30584463Y32745506D01*
X30663815Y32648815D01*
X30760506Y32569463D01*
X30870820Y32510498D01*
X30990518Y32474188D01*
X31115000Y32461928D01*
X33369250Y32465000D01*
X33528000Y32623750D01*
X33528000Y33723000D01*
X30638750Y33723000D01*
X30480000Y33564250D01*
X30476928Y33100000D01*
X27202001Y33100000D01*
X27202001Y34600000D01*
X30476928Y34600000D01*
X30480000Y34135750D01*
X30638750Y33977000D01*
X33528000Y33977000D01*
X33528000Y35076250D01*
X33369250Y35235000D01*
X31115000Y35238072D01*
X30990518Y35225812D01*
X30870820Y35189502D01*
X30760506Y35130537D01*
X30663815Y35051185D01*
X30584463Y34954494D01*
X30525498Y34844180D01*
X30489188Y34724482D01*
X30476928Y34600000D01*
X27202001Y34600000D01*
X27202001Y34639605D01*
X29635398Y37073000D01*
X30789943Y37073000D01*
X30811605Y37046605D01*
G37*
X30811605Y37046605D02*
X30876624Y36993245D01*
X30950804Y36953595D01*
X31031293Y36929178D01*
X31115000Y36920934D01*
X36195000Y36920934D01*
X36278707Y36929178D01*
X36359196Y36953595D01*
X36378001Y36963646D01*
X36378001Y35208061D01*
X36319482Y35225812D01*
X36195000Y35238072D01*
X33940750Y35235000D01*
X33782000Y35076250D01*
X33782000Y33977000D01*
X33802000Y33977000D01*
X33802000Y33723000D01*
X33782000Y33723000D01*
X33782000Y32623750D01*
X33940750Y32465000D01*
X36195000Y32461928D01*
X36319482Y32474188D01*
X36439180Y32510498D01*
X36549494Y32569463D01*
X36614395Y32622726D01*
X36656190Y32600386D01*
X36741393Y32574540D01*
X36807795Y32568000D01*
X36830000Y32565813D01*
X36852205Y32568000D01*
X37648000Y32568000D01*
X37648001Y18232000D01*
X36852205Y18232000D01*
X36830000Y18234187D01*
X36807795Y18232000D01*
X36741393Y18225460D01*
X36656190Y18199614D01*
X36614395Y18177274D01*
X36549494Y18230537D01*
X36439180Y18289502D01*
X36319482Y18325812D01*
X36195000Y18338072D01*
X33940750Y18335000D01*
X33782000Y18176250D01*
X33782000Y17077000D01*
X33802000Y17077000D01*
X33802000Y16823000D01*
X33782000Y16823000D01*
X33782000Y15723750D01*
X33940750Y15565000D01*
X36195000Y15561928D01*
X36319482Y15574188D01*
X36378000Y15591939D01*
X36378000Y13836354D01*
X36359196Y13846405D01*
X36278707Y13870822D01*
X36195000Y13879066D01*
X31115000Y13879066D01*
X31031293Y13870822D01*
X30950804Y13846405D01*
X30876624Y13806755D01*
X30811605Y13753395D01*
X30789943Y13727000D01*
X30340397Y13727000D01*
X27867397Y16200000D01*
X30476928Y16200000D01*
X30489188Y16075518D01*
X30525498Y15955820D01*
X30584463Y15845506D01*
X30663815Y15748815D01*
X30760506Y15669463D01*
X30870820Y15610498D01*
X30990518Y15574188D01*
X31115000Y15561928D01*
X33369250Y15565000D01*
X33528000Y15723750D01*
X33528000Y16823000D01*
X30638750Y16823000D01*
X30480000Y16664250D01*
X30476928Y16200000D01*
X27867397Y16200000D01*
X26367397Y17700000D01*
X30476928Y17700000D01*
X30480000Y17235750D01*
X30638750Y17077000D01*
X33528000Y17077000D01*
X33528000Y18176250D01*
X33369250Y18335000D01*
X31115000Y18338072D01*
X30990518Y18325812D01*
X30870820Y18289502D01*
X30760506Y18230537D01*
X30663815Y18151185D01*
X30584463Y18054494D01*
X30525498Y17944180D01*
X30489188Y17824482D01*
X30476928Y17700000D01*
X26367397Y17700000D01*
X25651999Y18415397D01*
X25651999Y23452749D01*
X25798000Y23598750D01*
X25798000Y24548000D01*
X26052000Y24548000D01*
X26052000Y23598750D01*
X26210750Y23440000D01*
X26325000Y23436928D01*
X26449482Y23449188D01*
X26569180Y23485498D01*
X26679494Y23544463D01*
X26776185Y23623815D01*
X26855537Y23720506D01*
X26914502Y23830820D01*
X26950812Y23950518D01*
X26963072Y24075000D01*
X26960000Y24389250D01*
X26801250Y24548000D01*
X26052000Y24548000D01*
X25798000Y24548000D01*
X25778000Y24548000D01*
X25778000Y24802000D01*
X25798000Y24802000D01*
X25798000Y24822000D01*
X26052000Y24822000D01*
X26052000Y24802000D01*
X26801250Y24802000D01*
X26960000Y24960750D01*
X26963072Y25275000D01*
X26950812Y25399482D01*
X26928226Y25473939D01*
X27033052Y25601670D01*
X27128416Y25780084D01*
X27187141Y25973674D01*
X27202001Y26124550D01*
X27202001Y33100000D01*
X30476928Y33100000D01*
X30489188Y32975518D01*
X30525498Y32855820D01*
X30584463Y32745506D01*
X30663815Y32648815D01*
X30760506Y32569463D01*
X30870820Y32510498D01*
X30990518Y32474188D01*
X31115000Y32461928D01*
X33369250Y32465000D01*
X33528000Y32623750D01*
X33528000Y33723000D01*
X30638750Y33723000D01*
X30480000Y33564250D01*
X30476928Y33100000D01*
X27202001Y33100000D01*
X27202001Y34600000D01*
X30476928Y34600000D01*
X30480000Y34135750D01*
X30638750Y33977000D01*
X33528000Y33977000D01*
X33528000Y35076250D01*
X33369250Y35235000D01*
X31115000Y35238072D01*
X30990518Y35225812D01*
X30870820Y35189502D01*
X30760506Y35130537D01*
X30663815Y35051185D01*
X30584463Y34954494D01*
X30525498Y34844180D01*
X30489188Y34724482D01*
X30476928Y34600000D01*
X27202001Y34600000D01*
X27202001Y34639605D01*
X29635398Y37073000D01*
X30789943Y37073000D01*
X30811605Y37046605D01*
G36*
X12423000Y33114602D02*
G01*
X12423001Y27886830D01*
X12235750Y27885000D01*
X12077000Y27726250D01*
X12077000Y26577000D01*
X12097000Y26577000D01*
X12097000Y26323000D01*
X12077000Y26323000D01*
X12077000Y26303000D01*
X11823000Y26303000D01*
X11823000Y26323000D01*
X10873750Y26323000D01*
X10715000Y26164250D01*
X10711928Y25650000D01*
X10724188Y25525518D01*
X10760498Y25405820D01*
X10819463Y25295506D01*
X10898815Y25198815D01*
X10923728Y25178369D01*
X10920934Y25150000D01*
X10920934Y23550000D01*
X10923001Y23529013D01*
X10923000Y16185398D01*
X8464604Y13727000D01*
X7310057Y13727000D01*
X7288395Y13753395D01*
X7223376Y13806755D01*
X7149196Y13846405D01*
X7068707Y13870822D01*
X6985000Y13879066D01*
X1905000Y13879066D01*
X1821293Y13870822D01*
X1740804Y13846405D01*
X1722000Y13836354D01*
X1722000Y15591939D01*
X1780518Y15574188D01*
X1905000Y15561928D01*
X4159250Y15565000D01*
X4318000Y15723750D01*
X4318000Y16823000D01*
X4572000Y16823000D01*
X4572000Y15723750D01*
X4730750Y15565000D01*
X6985000Y15561928D01*
X7109482Y15574188D01*
X7229180Y15610498D01*
X7339494Y15669463D01*
X7436185Y15748815D01*
X7515537Y15845506D01*
X7574502Y15955820D01*
X7610812Y16075518D01*
X7623072Y16200000D01*
X7620000Y16664250D01*
X7461250Y16823000D01*
X4572000Y16823000D01*
X4318000Y16823000D01*
X4298000Y16823000D01*
X4298000Y17077000D01*
X4318000Y17077000D01*
X4318000Y18176250D01*
X4572000Y18176250D01*
X4572000Y17077000D01*
X7461250Y17077000D01*
X7620000Y17235750D01*
X7623072Y17700000D01*
X7610812Y17824482D01*
X7574502Y17944180D01*
X7515537Y18054494D01*
X7436185Y18151185D01*
X7339494Y18230537D01*
X7229180Y18289502D01*
X7109482Y18325812D01*
X6985000Y18338072D01*
X4730750Y18335000D01*
X4572000Y18176250D01*
X4318000Y18176250D01*
X4159250Y18335000D01*
X1905000Y18338072D01*
X1780518Y18325812D01*
X1660820Y18289502D01*
X1550506Y18230537D01*
X1485605Y18177274D01*
X1443810Y18199614D01*
X1358607Y18225460D01*
X1292205Y18232000D01*
X1270000Y18234187D01*
X1247795Y18232000D01*
X452000Y18232000D01*
X452000Y27250000D01*
X10711928Y27250000D01*
X10715000Y26735750D01*
X10873750Y26577000D01*
X11823000Y26577000D01*
X11823000Y27726250D01*
X11664250Y27885000D01*
X11350000Y27888072D01*
X11225518Y27875812D01*
X11105820Y27839502D01*
X10995506Y27780537D01*
X10898815Y27701185D01*
X10819463Y27604494D01*
X10760498Y27494180D01*
X10724188Y27374482D01*
X10711928Y27250000D01*
X452000Y27250000D01*
X452000Y32568000D01*
X1247795Y32568000D01*
X1270000Y32565813D01*
X1292205Y32568000D01*
X1358607Y32574540D01*
X1443810Y32600386D01*
X1485605Y32622726D01*
X1550506Y32569463D01*
X1660820Y32510498D01*
X1780518Y32474188D01*
X1905000Y32461928D01*
X4159250Y32465000D01*
X4318000Y32623750D01*
X4318000Y33723000D01*
X4572000Y33723000D01*
X4572000Y32623750D01*
X4730750Y32465000D01*
X6985000Y32461928D01*
X7109482Y32474188D01*
X7229180Y32510498D01*
X7339494Y32569463D01*
X7436185Y32648815D01*
X7515537Y32745506D01*
X7574502Y32855820D01*
X7610812Y32975518D01*
X7623072Y33100000D01*
X7620000Y33564250D01*
X7461250Y33723000D01*
X4572000Y33723000D01*
X4318000Y33723000D01*
X4298000Y33723000D01*
X4298000Y33977000D01*
X4318000Y33977000D01*
X4318000Y35076250D01*
X4572000Y35076250D01*
X4572000Y33977000D01*
X7461250Y33977000D01*
X7620000Y34135750D01*
X7623072Y34600000D01*
X7610812Y34724482D01*
X7574502Y34844180D01*
X7515537Y34954494D01*
X7436185Y35051185D01*
X7339494Y35130537D01*
X7229180Y35189502D01*
X7109482Y35225812D01*
X6985000Y35238072D01*
X4730750Y35235000D01*
X4572000Y35076250D01*
X4318000Y35076250D01*
X4159250Y35235000D01*
X1905000Y35238072D01*
X1780518Y35225812D01*
X1722000Y35208061D01*
X1722000Y36963646D01*
X1740804Y36953595D01*
X1821293Y36929178D01*
X1905000Y36920934D01*
X6985000Y36920934D01*
X7068707Y36929178D01*
X7149196Y36953595D01*
X7223376Y36993245D01*
X7288395Y37046605D01*
X7310057Y37073000D01*
X8464604Y37073000D01*
X12423000Y33114602D01*
G37*
X12423000Y33114602D02*
X12423001Y27886830D01*
X12235750Y27885000D01*
X12077000Y27726250D01*
X12077000Y26577000D01*
X12097000Y26577000D01*
X12097000Y26323000D01*
X12077000Y26323000D01*
X12077000Y26303000D01*
X11823000Y26303000D01*
X11823000Y26323000D01*
X10873750Y26323000D01*
X10715000Y26164250D01*
X10711928Y25650000D01*
X10724188Y25525518D01*
X10760498Y25405820D01*
X10819463Y25295506D01*
X10898815Y25198815D01*
X10923728Y25178369D01*
X10920934Y25150000D01*
X10920934Y23550000D01*
X10923001Y23529013D01*
X10923000Y16185398D01*
X8464604Y13727000D01*
X7310057Y13727000D01*
X7288395Y13753395D01*
X7223376Y13806755D01*
X7149196Y13846405D01*
X7068707Y13870822D01*
X6985000Y13879066D01*
X1905000Y13879066D01*
X1821293Y13870822D01*
X1740804Y13846405D01*
X1722000Y13836354D01*
X1722000Y15591939D01*
X1780518Y15574188D01*
X1905000Y15561928D01*
X4159250Y15565000D01*
X4318000Y15723750D01*
X4318000Y16823000D01*
X4572000Y16823000D01*
X4572000Y15723750D01*
X4730750Y15565000D01*
X6985000Y15561928D01*
X7109482Y15574188D01*
X7229180Y15610498D01*
X7339494Y15669463D01*
X7436185Y15748815D01*
X7515537Y15845506D01*
X7574502Y15955820D01*
X7610812Y16075518D01*
X7623072Y16200000D01*
X7620000Y16664250D01*
X7461250Y16823000D01*
X4572000Y16823000D01*
X4318000Y16823000D01*
X4298000Y16823000D01*
X4298000Y17077000D01*
X4318000Y17077000D01*
X4318000Y18176250D01*
X4572000Y18176250D01*
X4572000Y17077000D01*
X7461250Y17077000D01*
X7620000Y17235750D01*
X7623072Y17700000D01*
X7610812Y17824482D01*
X7574502Y17944180D01*
X7515537Y18054494D01*
X7436185Y18151185D01*
X7339494Y18230537D01*
X7229180Y18289502D01*
X7109482Y18325812D01*
X6985000Y18338072D01*
X4730750Y18335000D01*
X4572000Y18176250D01*
X4318000Y18176250D01*
X4159250Y18335000D01*
X1905000Y18338072D01*
X1780518Y18325812D01*
X1660820Y18289502D01*
X1550506Y18230537D01*
X1485605Y18177274D01*
X1443810Y18199614D01*
X1358607Y18225460D01*
X1292205Y18232000D01*
X1270000Y18234187D01*
X1247795Y18232000D01*
X452000Y18232000D01*
X452000Y27250000D01*
X10711928Y27250000D01*
X10715000Y26735750D01*
X10873750Y26577000D01*
X11823000Y26577000D01*
X11823000Y27726250D01*
X11664250Y27885000D01*
X11350000Y27888072D01*
X11225518Y27875812D01*
X11105820Y27839502D01*
X10995506Y27780537D01*
X10898815Y27701185D01*
X10819463Y27604494D01*
X10760498Y27494180D01*
X10724188Y27374482D01*
X10711928Y27250000D01*
X452000Y27250000D01*
X452000Y32568000D01*
X1247795Y32568000D01*
X1270000Y32565813D01*
X1292205Y32568000D01*
X1358607Y32574540D01*
X1443810Y32600386D01*
X1485605Y32622726D01*
X1550506Y32569463D01*
X1660820Y32510498D01*
X1780518Y32474188D01*
X1905000Y32461928D01*
X4159250Y32465000D01*
X4318000Y32623750D01*
X4318000Y33723000D01*
X4572000Y33723000D01*
X4572000Y32623750D01*
X4730750Y32465000D01*
X6985000Y32461928D01*
X7109482Y32474188D01*
X7229180Y32510498D01*
X7339494Y32569463D01*
X7436185Y32648815D01*
X7515537Y32745506D01*
X7574502Y32855820D01*
X7610812Y32975518D01*
X7623072Y33100000D01*
X7620000Y33564250D01*
X7461250Y33723000D01*
X4572000Y33723000D01*
X4318000Y33723000D01*
X4298000Y33723000D01*
X4298000Y33977000D01*
X4318000Y33977000D01*
X4318000Y35076250D01*
X4572000Y35076250D01*
X4572000Y33977000D01*
X7461250Y33977000D01*
X7620000Y34135750D01*
X7623072Y34600000D01*
X7610812Y34724482D01*
X7574502Y34844180D01*
X7515537Y34954494D01*
X7436185Y35051185D01*
X7339494Y35130537D01*
X7229180Y35189502D01*
X7109482Y35225812D01*
X6985000Y35238072D01*
X4730750Y35235000D01*
X4572000Y35076250D01*
X4318000Y35076250D01*
X4159250Y35235000D01*
X1905000Y35238072D01*
X1780518Y35225812D01*
X1722000Y35208061D01*
X1722000Y36963646D01*
X1740804Y36953595D01*
X1821293Y36929178D01*
X1905000Y36920934D01*
X6985000Y36920934D01*
X7068707Y36929178D01*
X7149196Y36953595D01*
X7223376Y36993245D01*
X7288395Y37046605D01*
X7310057Y37073000D01*
X8464604Y37073000D01*
X12423000Y33114602D01*
M02*
